<svg width="44" height="34" viewBox="0 0 44 34" fill="none" xmlns="http://www.w3.org/2000/svg">
<path d="M4.125 0.5C1.84766 0.5 0 2.34766 0 4.625C0 5.92266 0.610156 7.14297 1.65 7.925L20.35 21.95C21.3297 22.6805 22.6703 22.6805 23.65 21.95L42.35 7.925C43.3898 7.14297 44 5.92266 44 4.625C44 2.34766 42.1523 0.5 39.875 0.5H4.125ZM0 10.125V28C0 31.0336 2.46641 33.5 5.5 33.5H38.5C41.5336 33.5 44 31.0336 44 28V10.125L25.3 24.15C23.3406 25.6195 20.6594 25.6195 18.7 24.15L0 10.125Z" fill="white"/>
</svg>
