<svg width="33" height="34" viewBox="0 0 33 34" fill="none" xmlns="http://www.w3.org/2000/svg">
<path d="M16.5 7.11406C11.1449 7.11406 6.79152 11.5004 6.78415 16.8961C6.78415 18.7441 7.29978 20.5477 8.2721 22.0988L8.50045 22.4699L7.52076 26.077L11.1964 25.1047L11.55 25.3199C13.0379 26.2105 14.7469 26.6855 16.4926 26.6855H16.5C21.8478 26.6855 26.319 22.2992 26.319 16.9035C26.319 14.291 25.1993 11.8344 23.3652 9.98633C21.5237 8.13086 19.0929 7.11406 16.5 7.11406ZM22.2087 21.0969C21.9656 21.7871 20.8018 22.4105 20.242 22.4922C19.3138 22.6332 18.592 22.559 16.7431 21.7574C13.8188 20.4809 11.9036 17.5121 11.7563 17.3191C11.6089 17.1262 10.5629 15.7234 10.5629 14.2762C10.5629 12.8289 11.3143 12.1164 11.5868 11.8195C11.852 11.5227 12.1687 11.4484 12.3676 11.4484C12.5592 11.4484 12.758 11.4484 12.9275 11.4559C13.1042 11.4633 13.3473 11.3891 13.583 11.9605C13.8261 12.5469 14.408 13.9941 14.4817 14.1426C14.5554 14.291 14.6069 14.4617 14.5038 14.6547C13.944 15.7828 13.3473 15.7383 13.6493 16.2578C14.7763 18.2098 15.9033 18.8852 17.6196 19.7535C17.9143 19.902 18.0837 19.8797 18.2531 19.6793C18.4225 19.4863 18.9824 18.8184 19.1739 18.5289C19.3654 18.232 19.5643 18.284 19.8295 18.3805C20.0946 18.477 21.531 19.1895 21.8257 19.3379C22.1203 19.4863 22.3118 19.5605 22.3855 19.6793C22.4518 19.8203 22.4518 20.4141 22.2087 21.0969ZM29.4643 0.375H3.53571C1.58371 0.375 0 1.9707 0 3.9375V30.0625C0 32.0293 1.58371 33.625 3.53571 33.625H29.4643C31.4163 33.625 33 32.0293 33 30.0625V3.9375C33 1.9707 31.4163 0.375 29.4643 0.375ZM16.4926 28.6672C14.5333 28.6672 12.6107 28.1699 10.9092 27.2348L4.71429 28.875L6.37165 22.7742C5.34777 20.993 4.81005 18.9668 4.81005 16.8887C4.81741 10.402 10.0547 5.125 16.4926 5.125C19.6158 5.125 22.5475 6.34961 24.7574 8.57617C26.9598 10.8027 28.2857 13.7566 28.2857 16.9035C28.2857 23.3902 22.9306 28.6672 16.4926 28.6672Z" fill="white"/>
</svg>
