<svg width="214" height="214" viewBox="0 0 214 214" fill="none" xmlns="http://www.w3.org/2000/svg">
<circle cx="107" cy="107" r="107" fill="black"/>
<g filter="url(#filter0_d_245_16)">
<path d="M70.858 159.278C67.2847 159.278 64.158 158.519 61.478 157C58.8873 155.571 57.592 153.025 57.592 149.362C57.592 147.039 58.1727 144.449 59.334 141.59C60.942 143.377 62.416 144.627 63.756 145.342C65.1853 146.057 66.704 146.414 68.312 146.414C72.7787 146.414 76.084 143.913 78.228 138.91C80.4613 133.907 81.578 128.369 81.578 122.294C81.578 110.949 77.3347 105.276 68.848 105.276C66.436 105.276 64.3813 105.41 62.684 105.678L51.696 157H32.4L50.624 71.776L70.456 69.096L64.158 98.844H64.962C68.3567 98.844 71.528 97.772 74.476 95.628C77.424 93.3947 79.7913 90.6253 81.578 87.32C83.3647 83.9253 84.258 80.5307 84.258 77.136C84.258 73.0267 82.784 69.5873 79.836 66.818C76.9773 64.0487 72.5553 62.664 66.57 62.664C61.1207 62.664 55.8053 63.9147 50.624 66.416C45.4427 68.828 41.1993 72.4907 37.894 77.404C34.678 82.3173 33.07 88.258 33.07 95.226C33.07 98.5313 33.3827 100.854 34.008 102.194C34.6333 103.445 34.946 104.159 34.946 104.338C30.2113 104.338 26.638 103.4 24.226 101.524C21.814 99.5587 20.608 96.3873 20.608 92.01C20.608 85.9353 22.886 80.1733 27.442 74.724C31.998 69.2747 38.028 64.8973 45.532 61.592C53.036 58.1973 60.942 56.5 69.25 56.5C75.5033 56.5 80.774 57.4827 85.062 59.448C89.35 61.4133 92.5213 64.004 94.576 67.22C96.72 70.436 97.792 73.9647 97.792 77.806C97.792 81.9153 96.6307 85.8907 94.308 89.732C91.9853 93.5733 88.68 96.7 84.392 99.112C89.752 100.095 93.7273 102.596 96.318 106.616C98.9087 110.547 100.204 115.237 100.204 120.686C100.204 125.778 99.2213 131.317 97.256 137.302C95.38 143.287 92.2087 148.469 87.742 152.846C83.3647 157.134 77.7367 159.278 70.858 159.278Z" fill="white"/>
</g>
<path d="M153.312 158.742C147.952 158.742 142.503 156.375 136.964 151.64L135.892 157H116.596L134.82 71.776L154.652 69.096L138.572 144.27C141.073 146.057 143.619 146.95 146.21 146.95C151.302 146.95 155.769 144.002 159.61 138.106C163.541 132.21 166.578 124.706 168.722 115.594C170.866 106.482 171.938 97.2807 171.938 87.99C171.938 79.2353 170.196 72.848 166.712 68.828C163.317 64.7187 158.538 62.664 152.374 62.664C145.674 62.664 139.644 64.004 134.284 66.684C129.013 69.2747 124.859 73.0267 121.822 77.94C118.785 82.8533 117.266 88.6153 117.266 95.226C117.266 98.5313 117.579 100.854 118.204 102.194C118.829 103.445 119.142 104.159 119.142 104.338C114.497 104.338 110.923 103.355 108.422 101.39C106.01 99.4247 104.804 96.2533 104.804 91.876C104.804 85.8013 107.082 80.0393 111.638 74.59C116.194 69.1407 122.269 64.7633 129.862 61.458C137.545 58.1527 145.808 56.5 154.652 56.5C166.891 56.5 175.913 60.118 181.72 67.354C187.527 74.59 190.43 83.836 190.43 95.092C190.43 105.276 188.688 115.326 185.204 125.242C181.809 135.069 177.253 143.109 171.536 149.362C165.819 155.615 159.744 158.742 153.312 158.742Z" fill="white"/>
<defs>
<filter id="filter0_d_245_16" x="16.6079" y="56.5" width="87.5962" height="110.778" filterUnits="userSpaceOnUse" color-interpolation-filters="sRGB">
<feFlood flood-opacity="0" result="BackgroundImageFix"/>
<feColorMatrix in="SourceAlpha" type="matrix" values="0 0 0 0 0 0 0 0 0 0 0 0 0 0 0 0 0 0 127 0" result="hardAlpha"/>
<feOffset dy="4"/>
<feGaussianBlur stdDeviation="2"/>
<feComposite in2="hardAlpha" operator="out"/>
<feColorMatrix type="matrix" values="0 0 0 0 0 0 0 0 0 0 0 0 0 0 0 0 0 0 0.25 0"/>
<feBlend mode="normal" in2="BackgroundImageFix" result="effect1_dropShadow_245_16"/>
<feBlend mode="normal" in="SourceGraphic" in2="effect1_dropShadow_245_16" result="shape"/>
</filter>
</defs>
</svg>
