<svg width="23" height="22" viewBox="0 0 23 22" fill="none" xmlns="http://www.w3.org/2000/svg">
<g clip-path="url(#clip0_2_30)">
<path d="M21.7142 12.3578C22.3931 12.3578 22.992 11.7563 22.992 10.9785C23.0319 10.5918 22.8722 10.248 22.5528 9.94727L20.4444 7.94922V2.75C20.4444 1.98945 19.8734 1.375 19.1667 1.375H17.8889C17.1821 1.375 16.6111 1.98945 16.6111 2.75V4.32695L12.3585 0.300781C12.1189 0.0859375 11.7995 0 11.52 0C11.2405 0 10.921 0.0429688 10.6415 0.34375L0.399306 9.94727C0.119792 10.248 0 10.5918 0 10.9785C0 11.752 0.559028 12.3578 1.27778 12.3578H2.55556V15.3527C2.55156 15.3914 2.55156 15.4301 2.55156 15.473V20.2812C2.55156 21.2309 3.26632 22 4.14878 22H4.78767C4.83559 22 4.88351 21.9957 4.93142 21.9914C4.99132 21.9957 5.05122 22 5.11111 22H6.38889H7.34722C8.22969 22 8.94444 21.2309 8.94444 20.2812V19.25V16.5C8.94444 15.7395 9.51545 15.125 10.2222 15.125H12.7778C13.4845 15.125 14.0556 15.7395 14.0556 16.5V19.25V20.2812C14.0556 21.2309 14.7703 22 15.6528 22H16.6111H17.9089C17.9648 22 18.0207 22 18.0766 21.9957C18.1205 22 18.1644 22 18.2083 22H18.8472C19.7297 22 20.4444 21.2309 20.4444 20.2812V19.5852C20.4564 19.4734 20.4644 19.3574 20.4644 19.2371L20.4365 12.3535H21.7142V12.3578Z" fill="white"/>
</g>
<defs>
<clipPath id="clip0_2_30">
<rect width="23" height="22" fill="white"/>
</clipPath>
</defs>
</svg>
