<svg width="223" height="214" viewBox="0 0 223 214" fill="none" xmlns="http://www.w3.org/2000/svg">
<circle cx="107" cy="107" r="107" fill="black"/>
<path d="M24.384 120.544C23.5307 120.544 22.784 120.363 22.144 120C21.5253 119.659 21.216 119.051 21.216 118.176C21.216 117.621 21.3547 117.003 21.632 116.32C22.016 116.747 22.368 117.045 22.688 117.216C23.0293 117.387 23.392 117.472 23.776 117.472C24.8427 117.472 25.632 116.875 26.144 115.68C26.6773 114.485 26.944 113.163 26.944 111.712C26.944 109.003 25.9307 107.648 23.904 107.648C23.328 107.648 22.8373 107.68 22.432 107.744L19.808 120H15.2L19.552 99.648L24.288 99.008L22.784 106.112H22.976C23.7867 106.112 24.544 105.856 25.248 105.344C25.952 104.811 26.5173 104.149 26.944 103.36C27.3707 102.549 27.584 101.739 27.584 100.928C27.584 99.9467 27.232 99.1253 26.528 98.464C25.8453 97.8027 24.7893 97.472 23.36 97.472C22.0587 97.472 20.7893 97.7707 19.552 98.368C18.3147 98.944 17.3013 99.8187 16.512 100.992C15.744 102.165 15.36 103.584 15.36 105.248C15.36 106.037 15.4347 106.592 15.584 106.912C15.7333 107.211 15.808 107.381 15.808 107.424C14.6773 107.424 13.824 107.2 13.248 106.752C12.672 106.283 12.384 105.525 12.384 104.48C12.384 103.029 12.928 101.653 14.016 100.352C15.104 99.0507 16.544 98.0053 18.336 97.216C20.128 96.4053 22.016 96 24 96C25.4933 96 26.752 96.2347 27.776 96.704C28.8 97.1733 29.5573 97.792 30.048 98.56C30.56 99.328 30.816 100.171 30.816 101.088C30.816 102.069 30.5387 103.019 29.984 103.936C29.4293 104.853 28.64 105.6 27.616 106.176C28.896 106.411 29.8453 107.008 30.464 107.968C31.0827 108.907 31.392 110.027 31.392 111.328C31.392 112.544 31.1573 113.867 30.688 115.296C30.24 116.725 29.4827 117.963 28.416 119.008C27.3707 120.032 26.0267 120.544 24.384 120.544ZM34.676 104H39.284L38.868 105.984C39.5933 105.344 40.244 104.853 40.82 104.512C41.4173 104.171 42.0573 104 42.74 104C43.4227 104 43.956 104.235 44.34 104.704C44.7453 105.173 44.948 105.739 44.948 106.4C44.948 107.019 44.7453 107.563 44.34 108.032C43.9347 108.501 43.3693 108.736 42.644 108.736C42.1747 108.736 41.8547 108.629 41.684 108.416C41.5347 108.181 41.4173 107.851 41.332 107.424C41.268 107.147 41.204 106.944 41.14 106.816C41.076 106.688 40.9587 106.624 40.788 106.624C40.34 106.624 39.956 106.72 39.636 106.912C39.3373 107.083 38.9427 107.392 38.452 107.84L35.892 120H31.284L34.676 104ZM49.2033 120.128C47.6246 120.128 46.3766 119.723 45.4593 118.912C44.5419 118.101 44.0832 116.821 44.0832 115.072C44.0832 113.621 44.3819 112.011 44.9793 110.24C45.5766 108.469 46.5366 106.944 47.8593 105.664C49.1819 104.363 50.8459 103.712 52.8513 103.712C55.5819 103.712 56.9473 105.419 56.9473 108.832V108.864C57.0113 108.885 57.1286 108.896 57.2993 108.896C58.0033 108.896 58.8139 108.715 59.7313 108.352C60.6486 107.968 61.4806 107.509 62.2273 106.976L62.5153 107.84C61.8966 108.501 61.0859 109.067 60.0833 109.536C59.1019 109.984 58.0246 110.304 56.8513 110.496C56.6806 112.437 56.2433 114.133 55.5393 115.584C54.8353 117.035 53.9286 118.155 52.8193 118.944C51.7099 119.733 50.5046 120.128 49.2033 120.128ZM50.4833 117.248C50.9953 117.248 51.5073 116.96 52.0193 116.384C52.5313 115.787 52.9793 114.987 53.3633 113.984C53.7473 112.96 54.0246 111.829 54.1953 110.592C53.6193 110.464 53.3313 110.016 53.3313 109.248C53.3313 108.373 53.6619 107.797 54.3233 107.52C54.2806 106.816 54.1739 106.336 54.0033 106.08C53.8326 105.803 53.5339 105.664 53.1073 105.664C52.4033 105.664 51.7206 106.176 51.0593 107.2C50.3979 108.224 49.8646 109.451 49.4593 110.88C49.0539 112.309 48.8513 113.568 48.8513 114.656C48.8513 115.68 48.9686 116.373 49.2033 116.736C49.4379 117.077 49.8646 117.248 50.4833 117.248ZM70.6258 120.192C69.3031 120.192 68.3004 119.883 67.6178 119.264C66.9351 118.624 66.5938 117.717 66.5938 116.544C66.5938 116.032 66.6578 115.477 66.7858 114.88L67.0417 113.632C67.1271 113.269 67.1698 112.875 67.1698 112.448C67.1698 111.424 66.7858 110.912 66.0178 110.912C65.6764 110.912 65.3138 111.008 64.9298 111.2C64.5671 111.392 64.1404 111.691 63.6498 112.096L61.9858 120H57.3777L62.0178 98.24L66.7538 97.6L64.3538 108.864L70.5298 104H73.6978L67.2978 108.448C67.6178 108.363 67.9698 108.32 68.3538 108.32C69.5058 108.32 70.3804 108.672 70.9778 109.376C71.5751 110.08 71.8738 110.976 71.8738 112.064C71.8738 112.512 71.8311 112.917 71.7458 113.28L71.3938 114.88C71.2871 115.264 71.2338 115.605 71.2338 115.904C71.2338 116.693 71.6498 117.088 72.4818 117.088C73.1218 117.088 73.6338 116.864 74.0178 116.416C74.4018 115.947 74.7858 115.232 75.1698 114.272H76.5138C75.1911 118.219 73.2284 120.192 70.6258 120.192ZM79.7323 120.192C78.1536 120.192 76.9269 119.787 76.0523 118.976C75.1776 118.144 74.7402 116.853 74.7402 115.104C74.7402 113.632 75.0282 112.011 75.6043 110.24C76.1803 108.469 77.1189 106.944 78.4203 105.664C79.7216 104.363 81.3749 103.712 83.3802 103.712C85.7269 103.712 86.9003 104.736 86.9003 106.784C86.9003 107.979 86.5589 109.077 85.8763 110.08C85.1936 111.083 84.2869 111.893 83.1562 112.512C82.0256 113.109 80.8203 113.451 79.5403 113.536C79.4976 114.176 79.4763 114.603 79.4763 114.816C79.4763 115.861 79.6576 116.576 80.0203 116.96C80.3829 117.323 80.9696 117.504 81.7803 117.504C82.9323 117.504 83.9136 117.237 84.7243 116.704C85.5563 116.171 86.4629 115.36 87.4443 114.272H88.5323C86.1643 118.219 83.2309 120.192 79.7323 120.192ZM79.7963 112C80.5856 111.957 81.3323 111.68 82.0363 111.168C82.7616 110.656 83.3376 110.005 83.7643 109.216C84.2123 108.427 84.4363 107.595 84.4363 106.72C84.4363 105.845 84.1696 105.408 83.6363 105.408C82.8683 105.408 82.1109 106.08 81.3643 107.424C80.6389 108.768 80.1163 110.293 79.7963 112ZM98.4455 120.192C97.3148 120.192 96.4935 119.851 95.9815 119.168C95.4695 118.485 95.2135 117.621 95.2135 116.576C95.2135 116.128 95.2668 115.627 95.3735 115.072C95.4802 114.496 95.5868 113.941 95.6935 113.408C95.8215 112.875 95.9068 112.533 95.9495 112.384C96.1202 111.637 96.2802 110.901 96.4295 110.176C96.5788 109.451 96.6535 108.864 96.6535 108.416C96.6535 107.328 96.2695 106.784 95.5015 106.784C94.9468 106.784 94.4562 107.061 94.0295 107.616C93.6028 108.149 93.2615 108.853 93.0055 109.728L90.8295 120H86.2215L89.6135 104H94.2215L93.8695 105.664C94.9362 104.469 96.1842 103.872 97.6135 103.872C98.7015 103.872 99.5655 104.171 100.206 104.768C100.846 105.365 101.166 106.272 101.166 107.488C101.166 108.107 101.091 108.8 100.942 109.568C100.792 110.315 100.579 111.232 100.302 112.32C100.131 112.981 99.9708 113.632 99.8215 114.272C99.6935 114.891 99.6295 115.381 99.6295 115.744C99.6295 116.171 99.7255 116.501 99.9175 116.736C100.11 116.971 100.44 117.088 100.91 117.088C101.422 117.088 101.774 117.024 101.966 116.896C101.838 117.984 101.443 118.805 100.782 119.36C100.142 119.915 99.3628 120.192 98.4455 120.192ZM120.682 120.416C119.402 120.416 118.101 119.851 116.778 118.72L116.522 120H111.914L116.266 99.648L121.002 99.008L117.162 116.96C117.76 117.387 118.368 117.6 118.986 117.6C120.202 117.6 121.269 116.896 122.186 115.488C123.125 114.08 123.85 112.288 124.362 110.112C124.874 107.936 125.13 105.739 125.13 103.52C125.13 101.429 124.714 99.904 123.882 98.944C123.072 97.9627 121.93 97.472 120.458 97.472C118.858 97.472 117.418 97.792 116.138 98.432C114.88 99.0507 113.888 99.9467 113.162 101.12C112.437 102.293 112.074 103.669 112.074 105.248C112.074 106.037 112.149 106.592 112.298 106.912C112.448 107.211 112.522 107.381 112.522 107.424C111.413 107.424 110.56 107.189 109.962 106.72C109.386 106.251 109.098 105.493 109.098 104.448C109.098 102.997 109.642 101.621 110.73 100.32C111.818 99.0187 113.269 97.9733 115.082 97.184C116.917 96.3947 118.89 96 121.002 96C123.925 96 126.08 96.864 127.466 98.592C128.853 100.32 129.546 102.528 129.546 105.216C129.546 107.648 129.13 110.048 128.298 112.416C127.488 114.763 126.4 116.683 125.034 118.176C123.669 119.669 122.218 120.416 120.682 120.416ZM132.301 104H136.909L136.493 105.984C137.218 105.344 137.869 104.853 138.445 104.512C139.042 104.171 139.682 104 140.365 104C141.048 104 141.581 104.235 141.965 104.704C142.37 105.173 142.573 105.739 142.573 106.4C142.573 107.019 142.37 107.563 141.965 108.032C141.56 108.501 140.994 108.736 140.269 108.736C139.8 108.736 139.48 108.629 139.309 108.416C139.16 108.181 139.042 107.851 138.957 107.424C138.893 107.147 138.829 106.944 138.765 106.816C138.701 106.688 138.584 106.624 138.413 106.624C137.965 106.624 137.581 106.72 137.261 106.912C136.962 107.083 136.568 107.392 136.077 107.84L133.517 120H128.909L132.301 104ZM146.732 120.192C145.154 120.192 143.927 119.787 143.052 118.976C142.178 118.144 141.74 116.853 141.74 115.104C141.74 113.632 142.028 112.011 142.604 110.24C143.18 108.469 144.119 106.944 145.42 105.664C146.722 104.363 148.375 103.712 150.38 103.712C152.727 103.712 153.9 104.736 153.9 106.784C153.9 107.979 153.559 109.077 152.876 110.08C152.194 111.083 151.287 111.893 150.156 112.512C149.026 113.109 147.82 113.451 146.54 113.536C146.498 114.176 146.476 114.603 146.476 114.816C146.476 115.861 146.658 116.576 147.02 116.96C147.383 117.323 147.97 117.504 148.78 117.504C149.932 117.504 150.914 117.237 151.724 116.704C152.556 116.171 153.463 115.36 154.444 114.272H155.532C153.164 118.219 150.231 120.192 146.732 120.192ZM146.796 112C147.586 111.957 148.332 111.68 149.036 111.168C149.762 110.656 150.338 110.005 150.764 109.216C151.212 108.427 151.436 107.595 151.436 106.72C151.436 105.845 151.17 105.408 150.636 105.408C149.868 105.408 149.111 106.08 148.364 107.424C147.639 108.768 147.116 110.293 146.796 112ZM158.278 120.192C157.062 120.192 156.048 119.776 155.238 118.944C154.427 118.112 154.021 116.811 154.021 115.04C154.021 113.461 154.331 111.808 154.95 110.08C155.59 108.331 156.528 106.859 157.766 105.664C159.024 104.448 160.518 103.84 162.246 103.84C163.12 103.84 163.771 103.989 164.198 104.288C164.624 104.587 164.838 104.981 164.838 105.472V105.696L165.19 104H169.798L167.494 114.88C167.408 115.2 167.366 115.541 167.366 115.904C167.366 116.821 167.803 117.28 168.678 117.28C169.275 117.28 169.787 117.003 170.214 116.448C170.662 115.893 171.014 115.168 171.27 114.272H172.614C171.824 116.576 170.843 118.144 169.67 118.976C168.518 119.787 167.355 120.192 166.182 120.192C165.286 120.192 164.56 119.947 164.006 119.456C163.472 118.944 163.152 118.208 163.046 117.248C162.427 118.123 161.734 118.837 160.966 119.392C160.219 119.925 159.323 120.192 158.278 120.192ZM160.358 117.088C160.891 117.088 161.414 116.843 161.926 116.352C162.459 115.84 162.822 115.147 163.014 114.272L164.55 107.04C164.55 106.763 164.443 106.496 164.23 106.24C164.016 105.963 163.686 105.824 163.238 105.824C162.384 105.824 161.616 106.325 160.934 107.328C160.251 108.309 159.718 109.504 159.334 110.912C158.95 112.299 158.758 113.525 158.758 114.592C158.758 115.659 158.907 116.341 159.206 116.64C159.526 116.939 159.91 117.088 160.358 117.088ZM190.737 120.192C189.436 120.192 188.476 119.851 187.857 119.168C187.26 118.464 186.961 117.6 186.961 116.576C186.961 116.128 187.015 115.627 187.121 115.072C187.228 114.496 187.335 113.941 187.441 113.408C187.569 112.875 187.655 112.533 187.697 112.384C187.868 111.637 188.028 110.901 188.177 110.176C188.327 109.451 188.401 108.864 188.401 108.416C188.401 107.328 188.017 106.784 187.249 106.784C186.695 106.784 186.204 107.061 185.777 107.616C185.351 108.149 185.009 108.853 184.753 109.728L182.577 120H177.969L180.305 108.96C180.369 108.704 180.401 108.437 180.401 108.16C180.401 107.221 180.081 106.752 179.441 106.752C178.844 106.752 178.321 107.029 177.873 107.584C177.447 108.117 177.105 108.832 176.849 109.728L174.673 120H170.065L173.457 104H178.065L177.713 105.664C178.801 104.448 180.103 103.84 181.617 103.84C183.495 103.84 184.593 104.757 184.913 106.592C186.087 104.779 187.569 103.872 189.361 103.872C190.449 103.872 191.313 104.171 191.953 104.768C192.593 105.365 192.913 106.272 192.913 107.488C192.913 108.107 192.839 108.8 192.689 109.568C192.54 110.315 192.327 111.232 192.049 112.32C191.879 112.981 191.719 113.632 191.569 114.272C191.441 114.891 191.377 115.381 191.377 115.744C191.377 116.171 191.473 116.501 191.665 116.736C191.857 116.971 192.188 117.088 192.657 117.088C193.297 117.088 193.809 116.864 194.193 116.416C194.577 115.947 194.961 115.232 195.345 114.272H196.689C195.9 116.619 194.983 118.197 193.937 119.008C192.913 119.797 191.847 120.192 190.737 120.192ZM198.992 120.192C197.968 120.192 197.104 120 196.4 119.616C195.696 119.211 195.173 118.699 194.832 118.08C194.49 117.44 194.32 116.779 194.32 116.096C194.32 115.392 194.49 114.784 194.832 114.272C195.152 113.739 195.546 113.355 196.016 113.12C196.848 111.627 197.573 110.123 198.192 108.608C198.81 107.072 199.397 105.419 199.952 103.648L204.688 103.008C204.794 105.739 204.976 108.693 205.232 111.872C205.338 113.152 205.392 114.08 205.392 114.656C205.392 115.957 205.061 117.024 204.4 117.856C203.738 118.688 202.917 119.285 201.936 119.648C200.976 120.011 199.994 120.192 198.992 120.192ZM197.968 117.664C198.757 117.664 199.418 117.429 199.952 116.96C200.485 116.491 200.752 115.733 200.752 114.688C200.752 114.048 200.688 113.152 200.56 112C200.346 109.568 200.208 107.936 200.144 107.104C199.632 108.789 198.768 110.805 197.552 113.152C198.042 113.408 198.288 113.781 198.288 114.272C198.288 114.677 198.149 115.04 197.872 115.36C197.616 115.68 197.285 115.84 196.88 115.84C196.432 115.84 196.144 115.701 196.016 115.424C196.016 116.192 196.165 116.757 196.464 117.12C196.784 117.483 197.285 117.664 197.968 117.664Z" fill="white"/>
</svg>
