<svg width="194" height="25" viewBox="0 0 194 25" fill="none" xmlns="http://www.w3.org/2000/svg">
<path d="M12.384 24.544C11.5307 24.544 10.784 24.3627 10.144 24C9.52533 23.6587 9.216 23.0507 9.216 22.176C9.216 21.6213 9.35467 21.0027 9.632 20.32C10.016 20.7467 10.368 21.0453 10.688 21.216C11.0293 21.3867 11.392 21.472 11.776 21.472C12.8427 21.472 13.632 20.8747 14.144 19.68C14.6773 18.4853 14.944 17.1627 14.944 15.712C14.944 13.0027 13.9307 11.648 11.904 11.648C11.328 11.648 10.8373 11.68 10.432 11.744L7.808 24H3.2L7.552 3.648L12.288 3.008L10.784 10.112H10.976C11.7867 10.112 12.544 9.856 13.248 9.344C13.952 8.81067 14.5173 8.14933 14.944 7.36C15.3707 6.54933 15.584 5.73867 15.584 4.928C15.584 3.94667 15.232 3.12533 14.528 2.464C13.8453 1.80267 12.7893 1.472 11.36 1.472C10.0587 1.472 8.78933 1.77066 7.552 2.368C6.31467 2.944 5.30133 3.81867 4.512 4.992C3.744 6.16533 3.36 7.584 3.36 9.248C3.36 10.0373 3.43467 10.592 3.584 10.912C3.73333 11.2107 3.808 11.3813 3.808 11.424C2.67733 11.424 1.824 11.2 1.248 10.752C0.672 10.2827 0.384 9.52533 0.384 8.48C0.384 7.02933 0.928 5.65333 2.016 4.352C3.104 3.05067 4.544 2.00533 6.336 1.216C8.128 0.405332 10.016 -1.90735e-06 12 -1.90735e-06C13.4933 -1.90735e-06 14.752 0.234665 15.776 0.703999C16.8 1.17333 17.5573 1.792 18.048 2.56C18.56 3.328 18.816 4.17067 18.816 5.088C18.816 6.06933 18.5387 7.01867 17.984 7.936C17.4293 8.85333 16.64 9.6 15.616 10.176C16.896 10.4107 17.8453 11.008 18.464 11.968C19.0827 12.9067 19.392 14.0267 19.392 15.328C19.392 16.544 19.1573 17.8667 18.688 19.296C18.24 20.7253 17.4827 21.9627 16.416 23.008C15.3707 24.032 14.0267 24.544 12.384 24.544ZM22.676 8H27.284L26.868 9.984C27.5933 9.344 28.244 8.85333 28.82 8.512C29.4173 8.17067 30.0573 8 30.74 8C31.4227 8 31.956 8.23467 32.34 8.704C32.7453 9.17333 32.948 9.73867 32.948 10.4C32.948 11.0187 32.7453 11.5627 32.34 12.032C31.9347 12.5013 31.3693 12.736 30.644 12.736C30.1747 12.736 29.8547 12.6293 29.684 12.416C29.5347 12.1813 29.4173 11.8507 29.332 11.424C29.268 11.1467 29.204 10.944 29.14 10.816C29.076 10.688 28.9587 10.624 28.788 10.624C28.34 10.624 27.956 10.72 27.636 10.912C27.3373 11.0827 26.9427 11.392 26.452 11.84L23.892 24H19.284L22.676 8ZM37.2033 24.128C35.6246 24.128 34.3766 23.7227 33.4593 22.912C32.5419 22.1013 32.0832 20.8213 32.0832 19.072C32.0832 17.6213 32.3819 16.0107 32.9793 14.24C33.5766 12.4693 34.5366 10.944 35.8593 9.664C37.1819 8.36267 38.8459 7.712 40.8513 7.712C43.5819 7.712 44.9473 9.41867 44.9473 12.832V12.864C45.0113 12.8853 45.1286 12.896 45.2993 12.896C46.0033 12.896 46.8139 12.7147 47.7313 12.352C48.6486 11.968 49.4806 11.5093 50.2273 10.976L50.5153 11.84C49.8966 12.5013 49.0859 13.0667 48.0833 13.536C47.1019 13.984 46.0246 14.304 44.8513 14.496C44.6806 16.4373 44.2433 18.1333 43.5393 19.584C42.8353 21.0347 41.9286 22.1547 40.8193 22.944C39.7099 23.7333 38.5046 24.128 37.2033 24.128ZM38.4833 21.248C38.9953 21.248 39.5073 20.96 40.0193 20.384C40.5313 19.7867 40.9793 18.9867 41.3633 17.984C41.7473 16.96 42.0246 15.8293 42.1953 14.592C41.6193 14.464 41.3313 14.016 41.3313 13.248C41.3313 12.3733 41.6619 11.7973 42.3233 11.52C42.2806 10.816 42.1739 10.336 42.0033 10.08C41.8326 9.80267 41.5339 9.664 41.1073 9.664C40.4033 9.664 39.7206 10.176 39.0593 11.2C38.3979 12.224 37.8646 13.4507 37.4593 14.88C37.0539 16.3093 36.8513 17.568 36.8513 18.656C36.8513 19.68 36.9686 20.3733 37.2033 20.736C37.4379 21.0773 37.8646 21.248 38.4833 21.248ZM58.6258 24.192C57.3031 24.192 56.3004 23.8827 55.6178 23.264C54.9351 22.624 54.5938 21.7173 54.5938 20.544C54.5938 20.032 54.6578 19.4773 54.7858 18.88L55.0417 17.632C55.1271 17.2693 55.1698 16.8747 55.1698 16.448C55.1698 15.424 54.7858 14.912 54.0178 14.912C53.6764 14.912 53.3138 15.008 52.9298 15.2C52.5671 15.392 52.1404 15.6907 51.6498 16.096L49.9858 24H45.3777L50.0178 2.24L54.7538 1.6L52.3538 12.864L58.5298 8H61.6978L55.2978 12.448C55.6178 12.3627 55.9698 12.32 56.3538 12.32C57.5058 12.32 58.3804 12.672 58.9778 13.376C59.5751 14.08 59.8738 14.976 59.8738 16.064C59.8738 16.512 59.8311 16.9173 59.7458 17.28L59.3938 18.88C59.2871 19.264 59.2338 19.6053 59.2338 19.904C59.2338 20.6933 59.6498 21.088 60.4818 21.088C61.1218 21.088 61.6338 20.864 62.0178 20.416C62.4018 19.9467 62.7858 19.232 63.1698 18.272H64.5138C63.1911 22.2187 61.2284 24.192 58.6258 24.192ZM67.7323 24.192C66.1536 24.192 64.9269 23.7867 64.0523 22.976C63.1776 22.144 62.7402 20.8533 62.7402 19.104C62.7402 17.632 63.0282 16.0107 63.6043 14.24C64.1803 12.4693 65.1189 10.944 66.4203 9.664C67.7216 8.36267 69.3749 7.712 71.3802 7.712C73.7269 7.712 74.9003 8.736 74.9003 10.784C74.9003 11.9787 74.5589 13.0773 73.8763 14.08C73.1936 15.0827 72.2869 15.8933 71.1562 16.512C70.0256 17.1093 68.8203 17.4507 67.5403 17.536C67.4976 18.176 67.4763 18.6027 67.4763 18.816C67.4763 19.8613 67.6576 20.576 68.0203 20.96C68.3829 21.3227 68.9696 21.504 69.7803 21.504C70.9323 21.504 71.9136 21.2373 72.7243 20.704C73.5563 20.1707 74.4629 19.36 75.4443 18.272H76.5323C74.1643 22.2187 71.2309 24.192 67.7323 24.192ZM67.7963 16C68.5856 15.9573 69.3323 15.68 70.0363 15.168C70.7616 14.656 71.3376 14.0053 71.7643 13.216C72.2123 12.4267 72.4363 11.5947 72.4363 10.72C72.4363 9.84533 72.1696 9.408 71.6363 9.408C70.8683 9.408 70.1109 10.08 69.3643 11.424C68.6389 12.768 68.1163 14.2933 67.7963 16ZM86.4455 24.192C85.3148 24.192 84.4935 23.8507 83.9815 23.168C83.4695 22.4853 83.2135 21.6213 83.2135 20.576C83.2135 20.128 83.2668 19.6267 83.3735 19.072C83.4802 18.496 83.5868 17.9413 83.6935 17.408C83.8215 16.8747 83.9068 16.5333 83.9495 16.384C84.1202 15.6373 84.2802 14.9013 84.4295 14.176C84.5788 13.4507 84.6535 12.864 84.6535 12.416C84.6535 11.328 84.2695 10.784 83.5015 10.784C82.9468 10.784 82.4562 11.0613 82.0295 11.616C81.6028 12.1493 81.2615 12.8533 81.0055 13.728L78.8295 24H74.2215L77.6135 8H82.2215L81.8695 9.664C82.9362 8.46933 84.1842 7.872 85.6135 7.872C86.7015 7.872 87.5655 8.17067 88.2055 8.768C88.8455 9.36533 89.1655 10.272 89.1655 11.488C89.1655 12.1067 89.0908 12.8 88.9415 13.568C88.7922 14.3147 88.5788 15.232 88.3015 16.32C88.1308 16.9813 87.9708 17.632 87.8215 18.272C87.6935 18.8907 87.6295 19.3813 87.6295 19.744C87.6295 20.1707 87.7255 20.5013 87.9175 20.736C88.1095 20.9707 88.4402 21.088 88.9095 21.088C89.4215 21.088 89.7735 21.024 89.9655 20.896C89.8375 21.984 89.4428 22.8053 88.7815 23.36C88.1415 23.9147 87.3628 24.192 86.4455 24.192ZM108.682 24.416C107.402 24.416 106.101 23.8507 104.778 22.72L104.522 24H99.9143L104.266 3.648L109.002 3.008L105.162 20.96C105.76 21.3867 106.368 21.6 106.986 21.6C108.202 21.6 109.269 20.896 110.186 19.488C111.125 18.08 111.85 16.288 112.362 14.112C112.874 11.936 113.13 9.73867 113.13 7.52C113.13 5.42933 112.714 3.904 111.882 2.944C111.072 1.96266 109.93 1.472 108.458 1.472C106.858 1.472 105.418 1.792 104.138 2.432C102.88 3.05067 101.888 3.94667 101.162 5.12C100.437 6.29333 100.074 7.66933 100.074 9.248C100.074 10.0373 100.149 10.592 100.298 10.912C100.448 11.2107 100.522 11.3813 100.522 11.424C99.4129 11.424 98.5596 11.1893 97.9622 10.72C97.3862 10.2507 97.0983 9.49333 97.0983 8.448C97.0983 6.99733 97.6423 5.62133 98.7303 4.32C99.8183 3.01867 101.269 1.97333 103.082 1.184C104.917 0.394665 106.89 -1.90735e-06 109.002 -1.90735e-06C111.925 -1.90735e-06 114.08 0.863998 115.466 2.592C116.853 4.32 117.546 6.528 117.546 9.216C117.546 11.648 117.13 14.048 116.298 16.416C115.488 18.7627 114.4 20.6827 113.034 22.176C111.669 23.6693 110.218 24.416 108.682 24.416ZM120.301 8H124.909L124.493 9.984C125.218 9.344 125.869 8.85333 126.445 8.512C127.042 8.17067 127.682 8 128.365 8C129.048 8 129.581 8.23467 129.965 8.704C130.37 9.17333 130.573 9.73867 130.573 10.4C130.573 11.0187 130.37 11.5627 129.965 12.032C129.56 12.5013 128.994 12.736 128.269 12.736C127.8 12.736 127.48 12.6293 127.309 12.416C127.16 12.1813 127.042 11.8507 126.957 11.424C126.893 11.1467 126.829 10.944 126.765 10.816C126.701 10.688 126.584 10.624 126.413 10.624C125.965 10.624 125.581 10.72 125.261 10.912C124.962 11.0827 124.568 11.392 124.077 11.84L121.517 24H116.909L120.301 8ZM134.732 24.192C133.154 24.192 131.927 23.7867 131.052 22.976C130.178 22.144 129.74 20.8533 129.74 19.104C129.74 17.632 130.028 16.0107 130.604 14.24C131.18 12.4693 132.119 10.944 133.42 9.664C134.722 8.36267 136.375 7.712 138.38 7.712C140.727 7.712 141.9 8.736 141.9 10.784C141.9 11.9787 141.559 13.0773 140.876 14.08C140.194 15.0827 139.287 15.8933 138.156 16.512C137.026 17.1093 135.82 17.4507 134.54 17.536C134.498 18.176 134.476 18.6027 134.476 18.816C134.476 19.8613 134.658 20.576 135.02 20.96C135.383 21.3227 135.97 21.504 136.78 21.504C137.932 21.504 138.914 21.2373 139.724 20.704C140.556 20.1707 141.463 19.36 142.444 18.272H143.532C141.164 22.2187 138.231 24.192 134.732 24.192ZM134.796 16C135.586 15.9573 136.332 15.68 137.036 15.168C137.762 14.656 138.338 14.0053 138.764 13.216C139.212 12.4267 139.436 11.5947 139.436 10.72C139.436 9.84533 139.17 9.408 138.636 9.408C137.868 9.408 137.111 10.08 136.364 11.424C135.639 12.768 135.116 14.2933 134.796 16ZM146.278 24.192C145.062 24.192 144.048 23.776 143.238 22.944C142.427 22.112 142.021 20.8107 142.021 19.04C142.021 17.4613 142.331 15.808 142.95 14.08C143.59 12.3307 144.528 10.8587 145.766 9.664C147.024 8.448 148.518 7.84 150.246 7.84C151.12 7.84 151.771 7.98933 152.198 8.288C152.624 8.58667 152.838 8.98133 152.838 9.472V9.696L153.19 8H157.798L155.494 18.88C155.408 19.2 155.366 19.5413 155.366 19.904C155.366 20.8213 155.803 21.28 156.678 21.28C157.275 21.28 157.787 21.0027 158.214 20.448C158.662 19.8933 159.014 19.168 159.27 18.272H160.614C159.824 20.576 158.843 22.144 157.67 22.976C156.518 23.7867 155.355 24.192 154.182 24.192C153.286 24.192 152.56 23.9467 152.006 23.456C151.472 22.944 151.152 22.208 151.046 21.248C150.427 22.1227 149.734 22.8373 148.966 23.392C148.219 23.9253 147.323 24.192 146.278 24.192ZM148.358 21.088C148.891 21.088 149.414 20.8427 149.926 20.352C150.459 19.84 150.822 19.1467 151.014 18.272L152.55 11.04C152.55 10.7627 152.443 10.496 152.23 10.24C152.016 9.96267 151.686 9.824 151.238 9.824C150.384 9.824 149.616 10.3253 148.934 11.328C148.251 12.3093 147.718 13.504 147.334 14.912C146.95 16.2987 146.758 17.5253 146.758 18.592C146.758 19.6587 146.907 20.3413 147.206 20.64C147.526 20.9387 147.91 21.088 148.358 21.088ZM178.737 24.192C177.436 24.192 176.476 23.8507 175.857 23.168C175.26 22.464 174.961 21.6 174.961 20.576C174.961 20.128 175.015 19.6267 175.121 19.072C175.228 18.496 175.335 17.9413 175.441 17.408C175.569 16.8747 175.655 16.5333 175.697 16.384C175.868 15.6373 176.028 14.9013 176.177 14.176C176.327 13.4507 176.401 12.864 176.401 12.416C176.401 11.328 176.017 10.784 175.249 10.784C174.695 10.784 174.204 11.0613 173.777 11.616C173.351 12.1493 173.009 12.8533 172.753 13.728L170.577 24H165.969L168.305 12.96C168.369 12.704 168.401 12.4373 168.401 12.16C168.401 11.2213 168.081 10.752 167.441 10.752C166.844 10.752 166.321 11.0293 165.873 11.584C165.447 12.1173 165.105 12.832 164.849 13.728L162.673 24H158.065L161.457 8H166.065L165.713 9.664C166.801 8.448 168.103 7.84 169.617 7.84C171.495 7.84 172.593 8.75733 172.913 10.592C174.087 8.77867 175.569 7.872 177.361 7.872C178.449 7.872 179.313 8.17067 179.953 8.768C180.593 9.36533 180.913 10.272 180.913 11.488C180.913 12.1067 180.839 12.8 180.689 13.568C180.54 14.3147 180.327 15.232 180.049 16.32C179.879 16.9813 179.719 17.632 179.569 18.272C179.441 18.8907 179.377 19.3813 179.377 19.744C179.377 20.1707 179.473 20.5013 179.665 20.736C179.857 20.9707 180.188 21.088 180.657 21.088C181.297 21.088 181.809 20.864 182.193 20.416C182.577 19.9467 182.961 19.232 183.345 18.272H184.689C183.9 20.6187 182.983 22.1973 181.937 23.008C180.913 23.7973 179.847 24.192 178.737 24.192ZM186.992 24.192C185.968 24.192 185.104 24 184.4 23.616C183.696 23.2107 183.173 22.6987 182.832 22.08C182.49 21.44 182.32 20.7787 182.32 20.096C182.32 19.392 182.49 18.784 182.832 18.272C183.152 17.7387 183.546 17.3547 184.016 17.12C184.848 15.6267 185.573 14.1227 186.192 12.608C186.81 11.072 187.397 9.41867 187.952 7.648L192.688 7.008C192.794 9.73867 192.976 12.6933 193.232 15.872C193.338 17.152 193.392 18.08 193.392 18.656C193.392 19.9573 193.061 21.024 192.4 21.856C191.738 22.688 190.917 23.2853 189.936 23.648C188.976 24.0107 187.994 24.192 186.992 24.192ZM185.968 21.664C186.757 21.664 187.418 21.4293 187.952 20.96C188.485 20.4907 188.752 19.7333 188.752 18.688C188.752 18.048 188.688 17.152 188.56 16C188.346 13.568 188.208 11.936 188.144 11.104C187.632 12.7893 186.768 14.8053 185.552 17.152C186.042 17.408 186.288 17.7813 186.288 18.272C186.288 18.6773 186.149 19.04 185.872 19.36C185.616 19.68 185.285 19.84 184.88 19.84C184.432 19.84 184.144 19.7013 184.016 19.424C184.016 20.192 184.165 20.7573 184.464 21.12C184.784 21.4827 185.285 21.664 185.968 21.664Z" fill="white"/>
</svg>
