<svg width="28" height="27" viewBox="0 0 28 27" fill="none" xmlns="http://www.w3.org/2000/svg">
<path d="M22.4383 12.1814L23.0563 11.5855L21.2023 9.79779L17.8063 6.52298L15.9523 4.73529L15.3344 5.33118L14.0984 6.52298L3.20469 17.0277C2.63594 17.5761 2.22032 18.2564 1.99063 18.9999L0.054693 25.3492C-0.0820257 25.7921 0.0437555 26.272 0.388287 26.599C0.732818 26.9259 1.22501 27.0472 1.68438 26.9206L8.26329 25.0538C9.03438 24.8324 9.73985 24.4316 10.3086 23.8831L21.2023 13.3784L22.4383 12.1814ZM8.75 21.0618L8.25235 22.2589C8.0336 22.4224 7.78751 22.5437 7.525 22.6228L3.24844 23.8357L4.50626 19.7171C4.58282 19.4587 4.71407 19.2214 4.8836 19.0158L6.12501 18.5359V20.2234C6.12501 20.6874 6.51875 21.0671 7.00001 21.0671H8.75V21.0618ZM19.8352 0.98587L19.0477 1.75052L17.8117 2.94232L17.1883 3.53821L19.0422 5.32591L22.4383 8.60072L24.2922 10.3884L24.9102 9.79251L26.1461 8.60072L26.9391 7.83607C28.3063 6.51771 28.3063 4.38196 26.9391 3.0636L24.7898 0.98587C23.4227 -0.332489 21.2078 -0.332489 19.8406 0.98587H19.8352ZM17.243 9.84525L9.36797 17.439C9.02891 17.7659 8.4711 17.7659 8.13204 17.439C7.79297 17.112 7.79297 16.5742 8.13204 16.2472L16.007 8.65345C16.3461 8.3265 16.9039 8.3265 17.243 8.65345C17.582 8.9804 17.582 9.51829 17.243 9.84525Z" fill="black"/>
</svg>
