<svg width="51" height="51" fill="none" xmlns="http://www.w3.org/2000/svg"><path d="M25.5 0C39.583 0 51 11.417 51 25.5S39.583 51 25.5 51a25.388 25.388 0 0 1-13.513-3.87 25.602 25.602 0 0 1-8.122-8.127A25.388 25.388 0 0 1 0 25.5c0-.777.035-1.55.104-2.317a2.125 2.125 0 1 1 4.233.382c-.058.64-.087 1.286-.087 1.935 0 4.037 1.126 7.903 3.218 11.25a21.367 21.367 0 0 0 6.774 6.776A21.136 21.136 0 0 0 25.5 46.75c11.736 0 21.25-9.514 21.25-21.25S37.236 4.25 25.5 4.25a21.217 21.217 0 0 0-17.006 8.506h7.81a2.125 2.125 0 0 1 .288 4.23l-.288.02H3.541c-1.076 0-1.965-.8-2.106-1.837l-.02-.288V2.13a2.125 2.125 0 0 1 4.231-.288l.02.288-.003 7.342A25.46 25.46 0 0 1 25.5 0Zm-2.125 11.333c1.075 0 1.965.8 2.105 1.837l.02.288V25.5h6.375a2.126 2.126 0 0 1 .288 4.23l-.288.02h-8.5c-1.075 0-1.965-.8-2.105-1.837l-.02-.288V13.458c0-1.173.952-2.125 2.125-2.125Z" fill="#fff"/></svg>