<svg width="21" height="22" viewBox="0 0 21 22" fill="none" xmlns="http://www.w3.org/2000/svg">
<g clip-path="url(#clip0_2_36)">
<path d="M3.9375 0.5C2.48965 0.5 1.3125 1.67715 1.3125 3.125V18.875C1.3125 20.3229 2.48965 21.5 3.9375 21.5H15.75C17.1979 21.5 18.375 20.3229 18.375 18.875V3.125C18.375 1.67715 17.1979 0.5 15.75 0.5H3.9375ZM8.53125 12.3125H11.1562C12.9691 12.3125 14.4375 13.7809 14.4375 15.5938C14.4375 15.9547 14.1422 16.25 13.7812 16.25H5.90625C5.54531 16.25 5.25 15.9547 5.25 15.5938C5.25 13.7809 6.71836 12.3125 8.53125 12.3125ZM7.21875 8.375C7.21875 7.67881 7.49531 7.01113 7.98759 6.51884C8.47988 6.02656 9.14756 5.75 9.84375 5.75C10.5399 5.75 11.2076 6.02656 11.6999 6.51884C12.1922 7.01113 12.4688 7.67881 12.4688 8.375C12.4688 9.07119 12.1922 9.73887 11.6999 10.2312C11.2076 10.7234 10.5399 11 9.84375 11C9.14756 11 8.47988 10.7234 7.98759 10.2312C7.49531 9.73887 7.21875 9.07119 7.21875 8.375ZM21 3.78125C21 3.42031 20.7047 3.125 20.3438 3.125C19.9828 3.125 19.6875 3.42031 19.6875 3.78125V6.40625C19.6875 6.76719 19.9828 7.0625 20.3438 7.0625C20.7047 7.0625 21 6.76719 21 6.40625V3.78125ZM20.3438 8.375C19.9828 8.375 19.6875 8.67031 19.6875 9.03125V11.6562C19.6875 12.0172 19.9828 12.3125 20.3438 12.3125C20.7047 12.3125 21 12.0172 21 11.6562V9.03125C21 8.67031 20.7047 8.375 20.3438 8.375ZM21 14.2812C21 13.9203 20.7047 13.625 20.3438 13.625C19.9828 13.625 19.6875 13.9203 19.6875 14.2812V16.9062C19.6875 17.2672 19.9828 17.5625 20.3438 17.5625C20.7047 17.5625 21 17.2672 21 16.9062V14.2812Z" fill="white"/>
</g>
<defs>
<clipPath id="clip0_2_36">
<rect width="21" height="21" fill="white" transform="translate(0 0.5)"/>
</clipPath>
</defs>
</svg>
