<svg width="907" height="711" viewBox="0 0 907 711" fill="none" xmlns="http://www.w3.org/2000/svg">
<g filter="url(#filter0_d_77_2)">
<rect y="17.4357" width="885" height="687.713" rx="15" fill="white"/>
<rect y="17.4357" width="885" height="687.713" rx="15" fill="#26413C"/>
</g>
<path d="M708.098 573.451C707.02 573.446 706.095 573.178 705.324 572.645C704.553 572.108 703.96 571.333 703.547 570.319C703.138 569.3 702.933 568.077 702.933 566.65C702.938 565.222 703.144 564.008 703.553 563.006C703.967 562 704.559 561.233 705.33 560.705C706.102 560.177 707.024 559.912 708.098 559.912C709.168 559.912 710.088 560.177 710.859 560.705C711.631 561.233 712.223 562 712.636 563.006C713.054 564.012 713.261 565.226 713.256 566.65C713.256 568.081 713.05 569.307 712.636 570.325C712.223 571.339 711.631 572.115 710.859 572.652C710.092 573.184 709.172 573.451 708.098 573.451ZM708.098 571.303C708.882 571.303 709.504 570.913 709.964 570.133C710.425 569.353 710.655 568.192 710.655 566.65C710.655 565.631 710.548 564.781 710.335 564.099C710.126 563.413 709.83 562.897 709.447 562.552C709.067 562.207 708.618 562.035 708.098 562.035C707.318 562.035 706.696 562.422 706.232 563.198C705.771 563.973 705.539 565.124 705.535 566.65C705.535 567.677 705.639 568.535 705.848 569.226C706.057 569.916 706.353 570.436 706.737 570.785C707.12 571.13 707.574 571.303 708.098 571.303Z" fill="#FC5252"/>
<path d="M695.778 499.845C694.901 499.845 694.116 499.683 693.426 499.359C692.74 499.031 692.195 498.581 691.79 498.01C691.385 497.435 691.172 496.777 691.151 496.035H693.643C693.678 496.559 693.899 496.985 694.308 497.314C694.717 497.637 695.207 497.799 695.778 497.799C696.226 497.799 696.624 497.699 696.974 497.499C697.323 497.294 697.598 497.011 697.798 496.649C697.999 496.282 698.097 495.865 698.092 495.396C698.097 494.919 697.996 494.497 697.792 494.13C697.587 493.764 697.306 493.476 696.948 493.267C696.594 493.059 696.188 492.954 695.727 492.954C695.339 492.95 694.96 493.024 694.589 493.178C694.219 493.331 693.929 493.538 693.72 493.798L691.419 493.402L692.071 486.575H699.869V488.697H694.193L693.835 492.072H693.912C694.146 491.765 694.489 491.512 694.941 491.311C695.397 491.111 695.9 491.011 696.45 491.011C697.242 491.011 697.947 491.199 698.565 491.574C699.188 491.944 699.678 492.453 700.036 493.101C700.393 493.749 700.57 494.493 700.566 495.332C700.57 496.206 700.37 496.983 699.965 497.665C699.56 498.343 698.998 498.875 698.278 499.263C697.558 499.651 696.724 499.845 695.778 499.845ZM707.594 499.934C706.516 499.93 705.591 499.662 704.82 499.129C704.049 498.592 703.456 497.816 703.043 496.802C702.634 495.784 702.429 494.561 702.429 493.133C702.434 491.706 702.64 490.491 703.049 489.49C703.463 488.484 704.055 487.717 704.826 487.189C705.598 486.66 706.52 486.396 707.594 486.396C708.664 486.396 709.584 486.66 710.355 487.189C711.127 487.717 711.719 488.484 712.132 489.49C712.55 490.495 712.757 491.71 712.752 493.133C712.752 494.565 712.546 495.79 712.132 496.809C711.719 497.823 711.127 498.598 710.355 499.135C709.588 499.668 708.668 499.934 707.594 499.934ZM707.594 497.787C708.378 497.787 709 497.397 709.461 496.617C709.921 495.837 710.151 494.676 710.151 493.133C710.151 492.115 710.044 491.265 709.831 490.583C709.623 489.897 709.326 489.381 708.943 489.036C708.564 488.691 708.114 488.518 707.594 488.518C706.814 488.518 706.192 488.906 705.728 489.681C705.267 490.457 705.035 491.608 705.031 493.133C705.031 494.16 705.135 495.019 705.344 495.709C705.553 496.399 705.849 496.919 706.233 497.269C706.616 497.614 707.07 497.787 707.594 497.787Z" fill="#FC5252"/>
<path d="M687.622 413.118V426.209H685.053V415.579H684.976L681.946 417.503V415.189L685.193 413.118H687.622ZM695.834 426.478C694.756 426.473 693.831 426.205 693.06 425.672C692.289 425.135 691.697 424.36 691.283 423.345C690.874 422.327 690.67 421.104 690.67 419.676C690.674 418.249 690.881 417.034 691.29 416.033C691.703 415.027 692.295 414.26 693.067 413.732C693.838 413.203 694.76 412.939 695.834 412.939C696.904 412.939 697.824 413.203 698.596 413.732C699.367 414.26 699.959 415.027 700.373 416.033C700.79 417.039 700.997 418.253 700.993 419.676C700.993 421.108 700.786 422.333 700.373 423.352C699.959 424.366 699.367 425.142 698.596 425.679C697.829 426.211 696.908 426.478 695.834 426.478ZM695.834 424.33C696.618 424.33 697.241 423.94 697.701 423.16C698.161 422.38 698.391 421.219 698.391 419.676C698.391 418.658 698.285 417.808 698.072 417.126C697.863 416.44 697.567 415.924 697.183 415.579C696.804 415.234 696.354 415.061 695.834 415.061C695.055 415.061 694.432 415.449 693.968 416.225C693.508 417 693.275 418.151 693.271 419.676C693.271 420.703 693.376 421.562 693.584 422.252C693.793 422.943 694.089 423.463 694.473 423.812C694.856 424.157 695.31 424.33 695.834 424.33ZM708.016 426.478C706.938 426.473 706.013 426.205 705.242 425.672C704.471 425.135 703.878 424.36 703.465 423.345C703.056 422.327 702.851 421.104 702.851 419.676C702.855 418.249 703.062 417.034 703.471 416.033C703.885 415.027 704.477 414.26 705.248 413.732C706.02 413.203 706.942 412.939 708.016 412.939C709.086 412.939 710.006 413.203 710.777 413.732C711.549 414.26 712.141 415.027 712.554 416.033C712.972 417.039 713.179 418.253 713.174 419.676C713.174 421.108 712.968 422.333 712.554 423.352C712.141 424.366 711.549 425.142 710.777 425.679C710.01 426.211 709.09 426.478 708.016 426.478ZM708.016 424.33C708.8 424.33 709.422 423.94 709.882 423.16C710.343 422.38 710.573 421.219 710.573 419.676C710.573 418.658 710.466 417.808 710.253 417.126C710.044 416.44 709.748 415.924 709.365 415.579C708.985 415.234 708.536 415.061 708.016 415.061C707.236 415.061 706.614 415.449 706.15 416.225C705.689 417 705.457 418.151 705.453 419.676C705.453 420.703 705.557 421.562 705.766 422.252C705.975 422.943 706.271 423.463 706.654 423.812C707.038 424.157 707.492 424.33 708.016 424.33Z" fill="#FC5252"/>
<path d="M679.112 279.296V277.442L683.714 273.057C684.132 272.648 684.479 272.281 684.756 271.957C685.038 271.629 685.249 271.312 685.389 271.005C685.534 270.698 685.607 270.368 685.607 270.014C685.607 269.614 685.515 269.271 685.332 268.985C685.153 268.695 684.906 268.474 684.59 268.32C684.275 268.163 683.917 268.084 683.516 268.084C683.099 268.084 682.734 268.169 682.423 268.34C682.112 268.506 681.871 268.747 681.701 269.062C681.535 269.373 681.452 269.746 681.452 270.18H679.01C679.01 269.337 679.202 268.604 679.585 267.982C679.969 267.359 680.501 266.878 681.183 266.537C681.869 266.196 682.656 266.026 683.542 266.026C684.45 266.026 685.242 266.19 685.92 266.518C686.602 266.846 687.132 267.3 687.511 267.879C687.891 268.455 688.08 269.115 688.08 269.861C688.08 270.351 687.984 270.835 687.793 271.312C687.601 271.789 687.264 272.32 686.783 272.903C686.301 273.483 685.624 274.182 684.75 275L682.66 277.084V277.173H688.266V279.296H679.112ZM695.366 279.564C694.287 279.56 693.363 279.291 692.591 278.759C691.82 278.222 691.228 277.446 690.814 276.432C690.405 275.413 690.201 274.19 690.201 272.763C690.205 271.335 690.412 270.121 690.821 269.119C691.234 268.114 691.827 267.347 692.598 266.818C693.369 266.29 694.292 266.026 695.366 266.026C696.435 266.026 697.356 266.29 698.127 266.818C698.898 267.347 699.491 268.114 699.904 269.119C700.322 270.125 700.528 271.34 700.524 272.763C700.524 274.195 700.317 275.42 699.904 276.438C699.491 277.452 698.898 278.228 698.127 278.765C697.36 279.298 696.439 279.564 695.366 279.564ZM695.366 277.416C696.15 277.416 696.772 277.026 697.232 276.247C697.692 275.467 697.922 274.305 697.922 272.763C697.922 271.744 697.816 270.894 697.603 270.212C697.394 269.526 697.098 269.011 696.714 268.666C696.335 268.32 695.885 268.148 695.366 268.148C694.586 268.148 693.964 268.536 693.499 269.311C693.039 270.087 692.807 271.237 692.802 272.763C692.802 273.79 692.907 274.649 693.116 275.339C693.324 276.029 693.621 276.549 694.004 276.899C694.388 277.244 694.841 277.416 695.366 277.416ZM707.547 279.564C706.469 279.56 705.544 279.291 704.773 278.759C704.002 278.222 703.409 277.446 702.996 276.432C702.587 275.413 702.382 274.19 702.382 272.763C702.387 271.335 702.593 270.121 703.002 269.119C703.416 268.114 704.008 267.347 704.779 266.818C705.551 266.29 706.473 266.026 707.547 266.026C708.617 266.026 709.537 266.29 710.309 266.818C711.08 267.347 711.672 268.114 712.086 269.119C712.503 270.125 712.71 271.34 712.706 272.763C712.706 274.195 712.499 275.42 712.086 276.438C711.672 277.452 711.08 278.228 710.309 278.765C709.542 279.298 708.621 279.564 707.547 279.564ZM707.547 277.416C708.331 277.416 708.953 277.026 709.414 276.247C709.874 275.467 710.104 274.305 710.104 272.763C710.104 271.744 709.998 270.894 709.784 270.212C709.576 269.526 709.279 269.011 708.896 268.666C708.517 268.32 708.067 268.148 707.547 268.148C706.767 268.148 706.145 268.536 705.681 269.311C705.221 270.087 704.988 271.237 704.984 272.763C704.984 273.79 705.088 274.649 705.297 275.339C705.506 276.029 705.802 276.549 706.186 276.899C706.569 277.244 707.023 277.416 707.547 277.416Z" fill="#FC5252"/>
<path d="M683.881 132.561C682.943 132.561 682.11 132.401 681.381 132.082C680.653 131.758 680.077 131.31 679.656 130.739C679.238 130.164 679.018 129.501 678.997 128.751H681.592C681.609 129.088 681.72 129.382 681.925 129.633C682.129 129.885 682.4 130.081 682.737 130.221C683.077 130.358 683.459 130.426 683.881 130.426C684.328 130.426 684.722 130.349 685.063 130.196C685.408 130.038 685.677 129.821 685.869 129.544C686.065 129.263 686.161 128.939 686.156 128.572C686.161 128.202 686.06 127.873 685.856 127.588C685.656 127.298 685.366 127.072 684.987 126.91C684.612 126.748 684.162 126.667 683.638 126.667H682.449V124.737H683.638C684.077 124.737 684.462 124.663 684.795 124.513C685.127 124.36 685.387 124.147 685.575 123.874C685.762 123.601 685.854 123.284 685.849 122.922C685.854 122.572 685.775 122.268 685.613 122.008C685.451 121.743 685.223 121.539 684.929 121.394C684.639 121.245 684.298 121.17 683.906 121.17C683.518 121.17 683.161 121.241 682.832 121.381C682.509 121.518 682.246 121.716 682.046 121.976C681.85 122.231 681.746 122.534 681.733 122.883H679.266C679.283 122.138 679.496 121.484 679.905 120.921C680.318 120.354 680.872 119.911 681.567 119.591C682.266 119.272 683.05 119.112 683.919 119.112C684.805 119.112 685.579 119.276 686.239 119.604C686.904 119.928 687.418 120.367 687.78 120.921C688.146 121.475 688.33 122.091 688.33 122.768C688.334 123.501 688.112 124.115 687.665 124.609C687.217 125.104 686.634 125.423 685.913 125.568V125.67C686.855 125.798 687.575 126.137 688.074 126.687C688.572 127.232 688.82 127.912 688.815 128.726C688.815 129.467 688.602 130.128 688.176 130.707C687.754 131.283 687.173 131.736 686.431 132.069C685.69 132.397 684.839 132.561 683.881 132.561ZM695.893 132.65C694.815 132.646 693.89 132.378 693.119 131.845C692.347 131.308 691.755 130.533 691.342 129.518C690.933 128.5 690.728 127.277 690.728 125.849C690.732 124.422 690.939 123.207 691.348 122.206C691.762 121.2 692.354 120.433 693.125 119.905C693.896 119.376 694.819 119.112 695.893 119.112C696.963 119.112 697.883 119.376 698.654 119.905C699.426 120.433 700.018 121.2 700.431 122.206C700.849 123.212 701.056 124.426 701.051 125.849C701.051 127.281 700.845 128.506 700.431 129.525C700.018 130.539 699.426 131.315 698.654 131.851C697.887 132.384 696.967 132.65 695.893 132.65ZM695.893 130.503C696.677 130.503 697.299 130.113 697.759 129.333C698.22 128.553 698.45 127.392 698.45 125.849C698.45 124.831 698.343 123.981 698.13 123.299C697.921 122.613 697.625 122.097 697.242 121.752C696.862 121.407 696.413 121.234 695.893 121.234C695.113 121.234 694.491 121.622 694.026 122.398C693.566 123.173 693.334 124.324 693.33 125.849C693.33 126.876 693.434 127.735 693.643 128.425C693.852 129.116 694.148 129.636 694.531 129.985C694.915 130.33 695.369 130.503 695.893 130.503ZM708.075 132.65C706.996 132.646 706.072 132.378 705.3 131.845C704.529 131.308 703.937 130.533 703.523 129.518C703.114 128.5 702.91 127.277 702.91 125.849C702.914 124.422 703.121 123.207 703.53 122.206C703.943 121.2 704.536 120.433 705.307 119.905C706.078 119.376 707.001 119.112 708.075 119.112C709.144 119.112 710.065 119.376 710.836 119.905C711.607 120.433 712.2 121.2 712.613 122.206C713.031 123.212 713.237 124.426 713.233 125.849C713.233 127.281 713.026 128.506 712.613 129.525C712.2 130.539 711.607 131.315 710.836 131.851C710.069 132.384 709.148 132.65 708.075 132.65ZM708.075 130.503C708.859 130.503 709.481 130.113 709.941 129.333C710.401 128.553 710.631 127.392 710.631 125.849C710.631 124.831 710.525 123.981 710.312 123.299C710.103 122.613 709.807 122.097 709.423 121.752C709.044 121.407 708.594 121.234 708.075 121.234C707.295 121.234 706.673 121.622 706.208 122.398C705.748 123.173 705.516 124.324 705.511 125.849C705.511 126.876 705.616 127.735 705.825 128.425C706.033 129.116 706.33 129.636 706.713 129.985C707.097 130.33 707.55 130.503 708.075 130.503Z" fill="#FC5252"/>
<path d="M680.112 205.839V203.985L684.714 199.6C685.132 199.191 685.479 198.825 685.756 198.501C686.038 198.173 686.249 197.855 686.389 197.548C686.534 197.241 686.607 196.911 686.607 196.557C686.607 196.157 686.515 195.814 686.332 195.528C686.153 195.239 685.906 195.017 685.59 194.864C685.275 194.706 684.917 194.627 684.516 194.627C684.099 194.627 683.734 194.712 683.423 194.883C683.112 195.049 682.871 195.29 682.701 195.605C682.535 195.916 682.452 196.289 682.452 196.724H680.01C680.01 195.88 680.202 195.147 680.585 194.525C680.969 193.903 681.501 193.421 682.183 193.08C682.869 192.739 683.656 192.569 684.542 192.569C685.45 192.569 686.242 192.733 686.92 193.061C687.602 193.389 688.132 193.843 688.511 194.423C688.891 194.998 689.08 195.658 689.08 196.404C689.08 196.894 688.984 197.378 688.793 197.855C688.601 198.332 688.264 198.863 687.783 199.447C687.301 200.026 686.624 200.725 685.75 201.543L683.66 203.627V203.717H689.266V205.839H680.112ZM696.046 206.018C695.168 206.018 694.384 205.856 693.694 205.532C693.008 205.204 692.462 204.754 692.057 204.183C691.653 203.608 691.439 202.95 691.418 202.208H693.911C693.945 202.732 694.167 203.158 694.576 203.486C694.985 203.81 695.475 203.972 696.046 203.972C696.493 203.972 696.892 203.872 697.241 203.672C697.591 203.467 697.866 203.184 698.066 202.822C698.266 202.455 698.364 202.038 698.36 201.569C698.364 201.092 698.264 200.67 698.059 200.303C697.855 199.937 697.574 199.649 697.216 199.44C696.862 199.232 696.455 199.127 695.995 199.127C695.607 199.123 695.228 199.197 694.857 199.351C694.486 199.504 694.197 199.711 693.988 199.971L691.687 199.575L692.339 192.748H700.137V194.87H694.461L694.103 198.245H694.18C694.414 197.938 694.757 197.685 695.209 197.484C695.665 197.284 696.167 197.184 696.717 197.184C697.51 197.184 698.215 197.371 698.833 197.746C699.455 198.117 699.945 198.626 700.303 199.274C700.661 199.922 700.838 200.665 700.834 201.505C700.838 202.379 700.638 203.156 700.233 203.838C699.828 204.516 699.265 205.048 698.545 205.436C697.825 205.824 696.992 206.018 696.046 206.018ZM707.862 206.107C706.784 206.103 705.859 205.834 705.088 205.302C704.316 204.765 703.724 203.989 703.311 202.975C702.901 201.957 702.697 200.734 702.697 199.306C702.701 197.879 702.908 196.664 703.317 195.663C703.73 194.657 704.323 193.89 705.094 193.361C705.865 192.833 706.788 192.569 707.862 192.569C708.931 192.569 709.852 192.833 710.623 193.361C711.394 193.89 711.987 194.657 712.4 195.663C712.818 196.668 713.024 197.883 713.02 199.306C713.02 200.738 712.813 201.963 712.4 202.982C711.987 203.996 711.394 204.771 710.623 205.308C709.856 205.841 708.936 206.107 707.862 206.107ZM707.862 203.959C708.646 203.959 709.268 203.57 709.728 202.79C710.188 202.01 710.419 200.849 710.419 199.306C710.419 198.288 710.312 197.437 710.099 196.756C709.89 196.07 709.594 195.554 709.21 195.209C708.831 194.864 708.382 194.691 707.862 194.691C707.082 194.691 706.46 195.079 705.995 195.854C705.535 196.63 705.303 197.781 705.298 199.306C705.298 200.333 705.403 201.192 705.612 201.882C705.82 202.572 706.117 203.092 706.5 203.442C706.884 203.787 707.338 203.959 707.862 203.959Z" fill="#FC5252"/>
<path d="M687.622 339.661V352.752H685.053V342.122H684.976L681.946 344.046V341.732L685.193 339.661H687.622ZM695.515 352.931C694.637 352.931 693.853 352.769 693.162 352.446C692.476 352.117 691.931 351.668 691.526 351.097C691.121 350.521 690.908 349.863 690.887 349.122H693.38C693.414 349.646 693.635 350.072 694.045 350.4C694.454 350.724 694.944 350.886 695.515 350.886C695.962 350.886 696.361 350.786 696.71 350.585C697.059 350.381 697.334 350.097 697.535 349.735C697.735 349.369 697.833 348.951 697.829 348.482C697.833 348.005 697.733 347.583 697.528 347.217C697.324 346.85 697.042 346.563 696.684 346.354C696.331 346.145 695.924 346.041 695.464 346.041C695.076 346.036 694.697 346.111 694.326 346.264C693.955 346.418 693.665 346.624 693.456 346.884L691.155 346.488L691.807 339.661H699.606V341.784H693.93L693.572 345.159H693.648C693.883 344.852 694.226 344.598 694.677 344.398C695.133 344.198 695.636 344.097 696.186 344.097C696.979 344.097 697.684 344.285 698.302 344.66C698.924 345.031 699.414 345.54 699.772 346.188C700.13 346.835 700.307 347.579 700.302 348.419C700.307 349.292 700.106 350.07 699.702 350.752C699.297 351.429 698.734 351.962 698.014 352.35C697.294 352.737 696.461 352.931 695.515 352.931ZM707.33 353.021C706.252 353.017 705.328 352.748 704.556 352.215C703.785 351.678 703.193 350.903 702.779 349.889C702.37 348.87 702.166 347.647 702.166 346.22C702.17 344.792 702.377 343.578 702.786 342.576C703.199 341.571 703.791 340.803 704.563 340.275C705.334 339.747 706.257 339.482 707.33 339.482C708.4 339.482 709.32 339.747 710.092 340.275C710.863 340.803 711.455 341.571 711.869 342.576C712.286 343.582 712.493 344.796 712.489 346.22C712.489 347.651 712.282 348.877 711.869 349.895C711.455 350.909 710.863 351.685 710.092 352.222C709.325 352.754 708.404 353.021 707.33 353.021ZM707.33 350.873C708.115 350.873 708.737 350.483 709.197 349.703C709.657 348.923 709.887 347.762 709.887 346.22C709.887 345.201 709.781 344.351 709.568 343.669C709.359 342.983 709.063 342.468 708.679 342.122C708.3 341.777 707.85 341.605 707.33 341.605C706.551 341.605 705.928 341.992 705.464 342.768C705.004 343.544 704.771 344.694 704.767 346.22C704.767 347.247 704.872 348.105 705.08 348.796C705.289 349.486 705.585 350.006 705.969 350.355C706.352 350.7 706.806 350.873 707.33 350.873Z" fill="#FC5252"/>
<path d="M195.112 618.123V616.27L199.714 611.885C200.132 611.476 200.479 611.109 200.756 610.785C201.038 610.457 201.249 610.14 201.389 609.833C201.534 609.526 201.607 609.196 201.607 608.842C201.607 608.441 201.515 608.098 201.332 607.813C201.153 607.523 200.906 607.301 200.59 607.148C200.275 606.99 199.917 606.912 199.516 606.912C199.099 606.912 198.734 606.997 198.423 607.167C198.112 607.333 197.871 607.574 197.701 607.89C197.535 608.201 197.452 608.574 197.452 609.008H195.01C195.01 608.164 195.202 607.431 195.585 606.809C195.969 606.187 196.501 605.706 197.183 605.365C197.869 605.024 198.656 604.853 199.542 604.853C200.45 604.853 201.242 605.017 201.92 605.346C202.602 605.674 203.132 606.127 203.511 606.707C203.891 607.282 204.08 607.943 204.08 608.689C204.08 609.179 203.984 609.662 203.793 610.14C203.601 610.617 203.264 611.147 202.783 611.731C202.301 612.311 201.624 613.01 200.75 613.828L198.66 615.912V616.001H204.266V618.123H195.112ZM211.366 618.392C210.287 618.387 209.363 618.119 208.591 617.586C207.82 617.049 207.228 616.274 206.814 615.26C206.405 614.241 206.201 613.018 206.201 611.591C206.205 610.163 206.412 608.949 206.821 607.947C207.234 606.941 207.827 606.174 208.598 605.646C209.369 605.118 210.292 604.853 211.366 604.853C212.435 604.853 213.356 605.118 214.127 605.646C214.898 606.174 215.491 606.941 215.904 607.947C216.322 608.953 216.528 610.167 216.524 611.591C216.524 613.022 216.317 614.248 215.904 615.266C215.491 616.28 214.898 617.056 214.127 617.593C213.36 618.125 212.439 618.392 211.366 618.392ZM211.366 616.244C212.15 616.244 212.772 615.854 213.232 615.074C213.692 614.294 213.922 613.133 213.922 611.591C213.922 610.572 213.816 609.722 213.603 609.04C213.394 608.354 213.098 607.838 212.714 607.493C212.335 607.148 211.885 606.976 211.366 606.976C210.586 606.976 209.964 607.363 209.499 608.139C209.039 608.914 208.807 610.065 208.802 611.591C208.802 612.618 208.907 613.476 209.116 614.167C209.324 614.857 209.621 615.377 210.004 615.726C210.388 616.071 210.841 616.244 211.366 616.244ZM218.561 618.123V616.27L223.164 611.885C223.581 611.476 223.929 611.109 224.206 610.785C224.487 610.457 224.698 610.14 224.838 609.833C224.983 609.526 225.056 609.196 225.056 608.842C225.056 608.441 224.964 608.098 224.781 607.813C224.602 607.523 224.355 607.301 224.039 607.148C223.724 606.99 223.366 606.912 222.966 606.912C222.548 606.912 222.184 606.997 221.873 607.167C221.561 607.333 221.321 607.574 221.15 607.89C220.984 608.201 220.901 608.574 220.901 609.008H218.459C218.459 608.164 218.651 607.431 219.034 606.809C219.418 606.187 219.951 605.706 220.632 605.365C221.319 605.024 222.105 604.853 222.991 604.853C223.899 604.853 224.691 605.017 225.369 605.346C226.051 605.674 226.581 606.127 226.961 606.707C227.34 607.282 227.529 607.943 227.529 608.689C227.529 609.179 227.434 609.662 227.242 610.14C227.05 610.617 226.713 611.147 226.232 611.731C225.75 612.311 225.073 613.01 224.199 613.828L222.109 615.912V616.001H227.715V618.123H218.561ZM229.829 618.123V616.27L234.431 611.885C234.849 611.476 235.196 611.109 235.473 610.785C235.754 610.457 235.965 610.14 236.106 609.833C236.251 609.526 236.323 609.196 236.323 608.842C236.323 608.441 236.232 608.098 236.048 607.813C235.869 607.523 235.622 607.301 235.307 607.148C234.992 606.99 234.634 606.912 234.233 606.912C233.816 606.912 233.451 606.997 233.14 607.167C232.829 607.333 232.588 607.574 232.418 607.89C232.252 608.201 232.169 608.574 232.169 609.008H229.727C229.727 608.164 229.919 607.431 230.302 606.809C230.686 606.187 231.218 605.706 231.9 605.365C232.586 605.024 233.372 604.853 234.259 604.853C235.166 604.853 235.959 605.017 236.637 605.346C237.318 605.674 237.849 606.127 238.228 606.707C238.607 607.282 238.797 607.943 238.797 608.689C238.797 609.179 238.701 609.662 238.509 610.14C238.318 610.617 237.981 611.147 237.499 611.731C237.018 612.311 236.34 613.01 235.467 613.828L233.377 615.912V616.001H238.982V618.123H229.829Z" fill="#FC5252"/>
<path d="M255.112 618.123V616.27L259.714 611.885C260.132 611.476 260.479 611.109 260.756 610.785C261.038 610.457 261.249 610.14 261.389 609.833C261.534 609.526 261.607 609.196 261.607 608.842C261.607 608.441 261.515 608.098 261.332 607.813C261.153 607.523 260.906 607.301 260.59 607.148C260.275 606.99 259.917 606.912 259.516 606.912C259.099 606.912 258.734 606.997 258.423 607.167C258.112 607.333 257.871 607.574 257.701 607.89C257.535 608.201 257.452 608.574 257.452 609.008H255.01C255.01 608.164 255.202 607.431 255.585 606.809C255.969 606.187 256.501 605.706 257.183 605.365C257.869 605.024 258.656 604.853 259.542 604.853C260.45 604.853 261.242 605.017 261.92 605.346C262.602 605.674 263.132 606.127 263.511 606.707C263.891 607.282 264.08 607.943 264.08 608.689C264.08 609.179 263.984 609.662 263.793 610.14C263.601 610.617 263.264 611.147 262.783 611.731C262.301 612.311 261.624 613.01 260.75 613.828L258.66 615.912V616.001H264.266V618.123H255.112ZM271.366 618.392C270.287 618.387 269.363 618.119 268.591 617.586C267.82 617.049 267.228 616.274 266.814 615.26C266.405 614.241 266.201 613.018 266.201 611.591C266.205 610.163 266.412 608.949 266.821 607.947C267.234 606.941 267.827 606.174 268.598 605.646C269.369 605.118 270.292 604.853 271.366 604.853C272.435 604.853 273.356 605.118 274.127 605.646C274.898 606.174 275.491 606.941 275.904 607.947C276.322 608.953 276.528 610.167 276.524 611.591C276.524 613.022 276.317 614.248 275.904 615.266C275.491 616.28 274.898 617.056 274.127 617.593C273.36 618.125 272.439 618.392 271.366 618.392ZM271.366 616.244C272.15 616.244 272.772 615.854 273.232 615.074C273.692 614.294 273.922 613.133 273.922 611.591C273.922 610.572 273.816 609.722 273.603 609.04C273.394 608.354 273.098 607.838 272.714 607.493C272.335 607.148 271.885 606.976 271.366 606.976C270.586 606.976 269.964 607.363 269.499 608.139C269.039 608.914 268.807 610.065 268.802 611.591C268.802 612.618 268.907 613.476 269.116 614.167C269.324 614.857 269.621 615.377 270.004 615.726C270.388 616.071 270.841 616.244 271.366 616.244ZM278.561 618.123V616.27L283.164 611.885C283.581 611.476 283.929 611.109 284.206 610.785C284.487 610.457 284.698 610.14 284.838 609.833C284.983 609.526 285.056 609.196 285.056 608.842C285.056 608.441 284.964 608.098 284.781 607.813C284.602 607.523 284.355 607.301 284.039 607.148C283.724 606.99 283.366 606.912 282.966 606.912C282.548 606.912 282.184 606.997 281.873 607.167C281.561 607.333 281.321 607.574 281.15 607.89C280.984 608.201 280.901 608.574 280.901 609.008H278.459C278.459 608.164 278.651 607.431 279.034 606.809C279.418 606.187 279.951 605.706 280.632 605.365C281.319 605.024 282.105 604.853 282.991 604.853C283.899 604.853 284.691 605.017 285.369 605.346C286.051 605.674 286.581 606.127 286.961 606.707C287.34 607.282 287.529 607.943 287.529 608.689C287.529 609.179 287.434 609.662 287.242 610.14C287.05 610.617 286.713 611.147 286.232 611.731C285.75 612.311 285.073 613.01 284.199 613.828L282.109 615.912V616.001H287.715V618.123H278.561ZM295.339 605.032V618.123H292.769V607.493H292.693L289.663 609.417V607.103L292.91 605.032H295.339Z" fill="#FC5252"/>
<path d="M315.112 618.123V616.27L319.714 611.885C320.132 611.476 320.479 611.109 320.756 610.785C321.038 610.457 321.249 610.14 321.389 609.833C321.534 609.526 321.607 609.196 321.607 608.842C321.607 608.441 321.515 608.098 321.332 607.813C321.153 607.523 320.906 607.301 320.59 607.148C320.275 606.99 319.917 606.912 319.516 606.912C319.099 606.912 318.734 606.997 318.423 607.167C318.112 607.333 317.871 607.574 317.701 607.89C317.535 608.201 317.452 608.574 317.452 609.008H315.01C315.01 608.164 315.202 607.431 315.585 606.809C315.969 606.187 316.501 605.706 317.183 605.365C317.869 605.024 318.656 604.853 319.542 604.853C320.45 604.853 321.242 605.017 321.92 605.346C322.602 605.674 323.132 606.127 323.511 606.707C323.891 607.282 324.08 607.943 324.08 608.689C324.08 609.179 323.984 609.662 323.793 610.14C323.601 610.617 323.264 611.147 322.783 611.731C322.301 612.311 321.624 613.01 320.75 613.828L318.66 615.912V616.001H324.266V618.123H315.112ZM331.366 618.392C330.287 618.387 329.363 618.119 328.591 617.586C327.82 617.049 327.228 616.274 326.814 615.26C326.405 614.241 326.201 613.018 326.201 611.591C326.205 610.163 326.412 608.949 326.821 607.947C327.234 606.941 327.827 606.174 328.598 605.646C329.369 605.118 330.292 604.853 331.366 604.853C332.435 604.853 333.356 605.118 334.127 605.646C334.898 606.174 335.491 606.941 335.904 607.947C336.322 608.953 336.528 610.167 336.524 611.591C336.524 613.022 336.317 614.248 335.904 615.266C335.491 616.28 334.898 617.056 334.127 617.593C333.36 618.125 332.439 618.392 331.366 618.392ZM331.366 616.244C332.15 616.244 332.772 615.854 333.232 615.074C333.692 614.294 333.922 613.133 333.922 611.591C333.922 610.572 333.816 609.722 333.603 609.04C333.394 608.354 333.098 607.838 332.714 607.493C332.335 607.148 331.885 606.976 331.366 606.976C330.586 606.976 329.964 607.363 329.499 608.139C329.039 608.914 328.807 610.065 328.802 611.591C328.802 612.618 328.907 613.476 329.116 614.167C329.324 614.857 329.621 615.377 330.004 615.726C330.388 616.071 330.841 616.244 331.366 616.244ZM338.561 618.123V616.27L343.164 611.885C343.581 611.476 343.929 611.109 344.206 610.785C344.487 610.457 344.698 610.14 344.838 609.833C344.983 609.526 345.056 609.196 345.056 608.842C345.056 608.441 344.964 608.098 344.781 607.813C344.602 607.523 344.355 607.301 344.039 607.148C343.724 606.99 343.366 606.912 342.966 606.912C342.548 606.912 342.184 606.997 341.873 607.167C341.561 607.333 341.321 607.574 341.15 607.89C340.984 608.201 340.901 608.574 340.901 609.008H338.459C338.459 608.164 338.651 607.431 339.034 606.809C339.418 606.187 339.951 605.706 340.632 605.365C341.319 605.024 342.105 604.853 342.991 604.853C343.899 604.853 344.691 605.017 345.369 605.346C346.051 605.674 346.581 606.127 346.961 606.707C347.34 607.282 347.529 607.943 347.529 608.689C347.529 609.179 347.434 609.662 347.242 610.14C347.05 610.617 346.713 611.147 346.232 611.731C345.75 612.311 345.073 613.01 344.199 613.828L342.109 615.912V616.001H347.715V618.123H338.561ZM354.815 618.392C353.737 618.387 352.812 618.119 352.041 617.586C351.269 617.049 350.677 616.274 350.264 615.26C349.855 614.241 349.65 613.018 349.65 611.591C349.654 610.163 349.861 608.949 350.27 607.947C350.683 606.941 351.276 606.174 352.047 605.646C352.818 605.118 353.741 604.853 354.815 604.853C355.884 604.853 356.805 605.118 357.576 605.646C358.347 606.174 358.94 606.941 359.353 607.947C359.771 608.953 359.977 610.167 359.973 611.591C359.973 613.022 359.767 614.248 359.353 615.266C358.94 616.28 358.347 617.056 357.576 617.593C356.809 618.125 355.889 618.392 354.815 618.392ZM354.815 616.244C355.599 616.244 356.221 615.854 356.681 615.074C357.142 614.294 357.372 613.133 357.372 611.591C357.372 610.572 357.265 609.722 357.052 609.04C356.843 608.354 356.547 607.838 356.164 607.493C355.784 607.148 355.335 606.976 354.815 606.976C354.035 606.976 353.413 607.363 352.948 608.139C352.488 608.914 352.256 610.065 352.252 611.591C352.252 612.618 352.356 613.476 352.565 614.167C352.774 614.857 353.07 615.377 353.453 615.726C353.837 616.071 354.291 616.244 354.815 616.244Z" fill="#FC5252"/>
<path d="M375.112 618.123V616.27L379.714 611.885C380.132 611.476 380.479 611.109 380.756 610.785C381.038 610.457 381.249 610.14 381.389 609.833C381.534 609.526 381.607 609.196 381.607 608.842C381.607 608.441 381.515 608.098 381.332 607.813C381.153 607.523 380.906 607.301 380.59 607.148C380.275 606.99 379.917 606.912 379.516 606.912C379.099 606.912 378.734 606.997 378.423 607.167C378.112 607.333 377.871 607.574 377.701 607.89C377.535 608.201 377.452 608.574 377.452 609.008H375.01C375.01 608.164 375.202 607.431 375.585 606.809C375.969 606.187 376.501 605.706 377.183 605.365C377.869 605.024 378.656 604.853 379.542 604.853C380.45 604.853 381.242 605.017 381.92 605.346C382.602 605.674 383.132 606.127 383.511 606.707C383.891 607.282 384.08 607.943 384.08 608.689C384.08 609.179 383.984 609.662 383.793 610.14C383.601 610.617 383.264 611.147 382.783 611.731C382.301 612.311 381.624 613.01 380.75 613.828L378.66 615.912V616.001H384.266V618.123H375.112ZM391.366 618.392C390.287 618.387 389.363 618.119 388.591 617.586C387.82 617.049 387.228 616.274 386.814 615.26C386.405 614.241 386.201 613.018 386.201 611.591C386.205 610.163 386.412 608.949 386.821 607.947C387.234 606.941 387.827 606.174 388.598 605.646C389.369 605.118 390.292 604.853 391.366 604.853C392.435 604.853 393.356 605.118 394.127 605.646C394.898 606.174 395.491 606.941 395.904 607.947C396.322 608.953 396.528 610.167 396.524 611.591C396.524 613.022 396.317 614.248 395.904 615.266C395.491 616.28 394.898 617.056 394.127 617.593C393.36 618.125 392.439 618.392 391.366 618.392ZM391.366 616.244C392.15 616.244 392.772 615.854 393.232 615.074C393.692 614.294 393.922 613.133 393.922 611.591C393.922 610.572 393.816 609.722 393.603 609.04C393.394 608.354 393.098 607.838 392.714 607.493C392.335 607.148 391.885 606.976 391.366 606.976C390.586 606.976 389.964 607.363 389.499 608.139C389.039 608.914 388.807 610.065 388.802 611.591C388.802 612.618 388.907 613.476 389.116 614.167C389.324 614.857 389.621 615.377 390.004 615.726C390.388 616.071 390.841 616.244 391.366 616.244ZM404.071 605.032V618.123H401.502V607.493H401.425L398.395 609.417V607.103L401.642 605.032H404.071ZM411.938 604.853C412.586 604.858 413.215 604.971 413.824 605.192C414.433 605.409 414.981 605.763 415.467 606.253C415.953 606.739 416.336 607.389 416.617 608.203C416.903 609.017 417.048 610.018 417.052 611.207C417.052 612.324 416.928 613.321 416.681 614.199C416.438 615.076 416.089 615.82 415.633 616.429C415.177 617.039 414.627 617.503 413.984 617.823C413.34 618.142 412.62 618.302 411.823 618.302C410.971 618.302 410.219 618.138 409.567 617.81C408.915 617.478 408.389 617.024 407.988 616.449C407.592 615.873 407.349 615.221 407.259 614.493H409.791C409.901 614.991 410.134 615.383 410.487 615.669C410.845 615.954 411.291 616.097 411.823 616.097C412.701 616.097 413.374 615.713 413.843 614.946C414.312 614.179 414.546 613.12 414.546 611.77H414.457C414.257 612.149 413.99 612.475 413.658 612.748C413.325 613.02 412.946 613.231 412.52 613.38C412.098 613.525 411.649 613.598 411.171 613.598C410.404 613.598 409.716 613.417 409.107 613.054C408.497 612.688 408.016 612.187 407.662 611.552C407.313 610.913 407.136 610.184 407.132 609.366C407.132 608.501 407.332 607.728 407.732 607.046C408.133 606.364 408.693 605.827 409.414 605.435C410.134 605.039 410.975 604.845 411.938 604.853ZM411.951 606.899C411.504 606.899 411.103 607.005 410.749 607.218C410.4 607.431 410.123 607.721 409.919 608.088C409.718 608.45 409.62 608.855 409.624 609.302C409.624 609.75 409.722 610.154 409.919 610.517C410.119 610.879 410.392 611.167 410.737 611.38C411.082 611.588 411.478 611.693 411.926 611.693C412.258 611.693 412.567 611.631 412.852 611.507C413.138 611.38 413.387 611.205 413.6 610.983C413.813 610.757 413.98 610.5 414.099 610.21C414.222 609.92 414.282 609.613 414.278 609.289C414.278 608.859 414.176 608.463 413.971 608.101C413.771 607.738 413.494 607.449 413.14 607.231C412.791 607.01 412.394 606.899 411.951 606.899Z" fill="#FC5252"/>
<path d="M435.112 618.123V616.27L439.714 611.885C440.132 611.476 440.479 611.109 440.756 610.785C441.038 610.457 441.249 610.14 441.389 609.833C441.534 609.526 441.607 609.196 441.607 608.842C441.607 608.441 441.515 608.098 441.332 607.813C441.153 607.523 440.906 607.301 440.59 607.148C440.275 606.99 439.917 606.912 439.516 606.912C439.099 606.912 438.734 606.997 438.423 607.167C438.112 607.333 437.871 607.574 437.701 607.89C437.535 608.201 437.452 608.574 437.452 609.008H435.01C435.01 608.164 435.202 607.431 435.585 606.809C435.969 606.187 436.501 605.706 437.183 605.365C437.869 605.024 438.656 604.853 439.542 604.853C440.45 604.853 441.242 605.017 441.92 605.346C442.602 605.674 443.132 606.127 443.511 606.707C443.891 607.282 444.08 607.943 444.08 608.689C444.08 609.179 443.984 609.662 443.793 610.14C443.601 610.617 443.264 611.147 442.783 611.731C442.301 612.311 441.624 613.01 440.75 613.828L438.66 615.912V616.001H444.266V618.123H435.112ZM451.366 618.392C450.287 618.387 449.363 618.119 448.591 617.586C447.82 617.049 447.228 616.274 446.814 615.26C446.405 614.241 446.201 613.018 446.201 611.591C446.205 610.163 446.412 608.949 446.821 607.947C447.234 606.941 447.827 606.174 448.598 605.646C449.369 605.118 450.292 604.853 451.366 604.853C452.435 604.853 453.356 605.118 454.127 605.646C454.898 606.174 455.491 606.941 455.904 607.947C456.322 608.953 456.528 610.167 456.524 611.591C456.524 613.022 456.317 614.248 455.904 615.266C455.491 616.28 454.898 617.056 454.127 617.593C453.36 618.125 452.439 618.392 451.366 618.392ZM451.366 616.244C452.15 616.244 452.772 615.854 453.232 615.074C453.692 614.294 453.922 613.133 453.922 611.591C453.922 610.572 453.816 609.722 453.603 609.04C453.394 608.354 453.098 607.838 452.714 607.493C452.335 607.148 451.885 606.976 451.366 606.976C450.586 606.976 449.964 607.363 449.499 608.139C449.039 608.914 448.807 610.065 448.802 611.591C448.802 612.618 448.907 613.476 449.116 614.167C449.324 614.857 449.621 615.377 450.004 615.726C450.388 616.071 450.841 616.244 451.366 616.244ZM464.071 605.032V618.123H461.502V607.493H461.425L458.395 609.417V607.103L461.642 605.032H464.071ZM472.066 618.302C471.099 618.302 470.24 618.142 469.49 617.823C468.74 617.503 468.152 617.064 467.726 616.506C467.304 615.948 467.093 615.315 467.093 614.608C467.093 614.062 467.215 613.559 467.458 613.099C467.705 612.639 468.039 612.255 468.461 611.949C468.887 611.642 469.36 611.446 469.88 611.36V611.271C469.194 611.126 468.638 610.785 468.212 610.248C467.79 609.707 467.579 609.081 467.579 608.369C467.579 607.691 467.773 607.088 468.161 606.56C468.548 606.032 469.079 605.616 469.752 605.314C470.43 605.007 471.201 604.853 472.066 604.853C472.927 604.853 473.694 605.007 474.367 605.314C475.045 605.616 475.578 606.034 475.965 606.566C476.353 607.095 476.547 607.696 476.547 608.369C476.547 609.081 476.332 609.707 475.901 610.248C475.475 610.785 474.926 611.126 474.252 611.271V611.36C474.768 611.446 475.235 611.642 475.652 611.949C476.074 612.255 476.409 612.639 476.656 613.099C476.907 613.559 477.033 614.062 477.033 614.608C477.033 615.315 476.82 615.948 476.394 616.506C475.968 617.064 475.379 617.503 474.629 617.823C473.884 618.142 473.029 618.302 472.066 618.302ZM472.066 616.372C472.531 616.372 472.936 616.291 473.281 616.129C473.626 615.963 473.894 615.733 474.086 615.439C474.282 615.145 474.38 614.804 474.38 614.416C474.38 614.02 474.278 613.668 474.073 613.361C473.873 613.05 473.598 612.807 473.249 612.632C472.904 612.458 472.509 612.37 472.066 612.37C471.619 612.37 471.22 612.458 470.871 612.632C470.521 612.807 470.247 613.05 470.046 613.361C469.846 613.668 469.746 614.02 469.746 614.416C469.746 614.804 469.842 615.145 470.034 615.439C470.225 615.733 470.496 615.963 470.845 616.129C471.195 616.291 471.602 616.372 472.066 616.372ZM472.066 610.466C472.45 610.466 472.789 610.389 473.083 610.235C473.381 610.078 473.615 609.86 473.786 609.583C473.96 609.306 474.048 608.987 474.048 608.625C474.048 608.267 473.963 607.953 473.792 607.685C473.626 607.412 473.394 607.201 473.095 607.052C472.797 606.899 472.454 606.822 472.066 606.822C471.674 606.822 471.327 606.899 471.024 607.052C470.726 607.201 470.494 607.412 470.328 607.685C470.161 607.953 470.08 608.267 470.085 608.625C470.08 608.987 470.164 609.306 470.334 609.583C470.504 609.86 470.739 610.078 471.037 610.235C471.335 610.389 471.678 610.466 472.066 610.466Z" fill="#FC5252"/>
<path d="M495.112 618.123V616.27L499.714 611.885C500.132 611.476 500.479 611.109 500.756 610.785C501.038 610.457 501.249 610.14 501.389 609.833C501.534 609.526 501.607 609.196 501.607 608.842C501.607 608.441 501.515 608.098 501.332 607.813C501.153 607.523 500.906 607.301 500.59 607.148C500.275 606.99 499.917 606.912 499.516 606.912C499.099 606.912 498.734 606.997 498.423 607.167C498.112 607.333 497.871 607.574 497.701 607.89C497.535 608.201 497.452 608.574 497.452 609.008H495.01C495.01 608.164 495.202 607.431 495.585 606.809C495.969 606.187 496.501 605.706 497.183 605.365C497.869 605.024 498.656 604.853 499.542 604.853C500.45 604.853 501.242 605.017 501.92 605.346C502.602 605.674 503.132 606.127 503.511 606.707C503.891 607.282 504.08 607.943 504.08 608.689C504.08 609.179 503.984 609.662 503.793 610.14C503.601 610.617 503.264 611.147 502.783 611.731C502.301 612.311 501.624 613.01 500.75 613.828L498.66 615.912V616.001H504.266V618.123H495.112ZM511.366 618.392C510.287 618.387 509.363 618.119 508.591 617.586C507.82 617.049 507.228 616.274 506.814 615.26C506.405 614.241 506.201 613.018 506.201 611.591C506.205 610.163 506.412 608.949 506.821 607.947C507.234 606.941 507.827 606.174 508.598 605.646C509.369 605.118 510.292 604.853 511.366 604.853C512.435 604.853 513.356 605.118 514.127 605.646C514.898 606.174 515.491 606.941 515.904 607.947C516.322 608.953 516.528 610.167 516.524 611.591C516.524 613.022 516.317 614.248 515.904 615.266C515.491 616.28 514.898 617.056 514.127 617.593C513.36 618.125 512.439 618.392 511.366 618.392ZM511.366 616.244C512.15 616.244 512.772 615.854 513.232 615.074C513.692 614.294 513.922 613.133 513.922 611.591C513.922 610.572 513.816 609.722 513.603 609.04C513.394 608.354 513.098 607.838 512.714 607.493C512.335 607.148 511.885 606.976 511.366 606.976C510.586 606.976 509.964 607.363 509.499 608.139C509.039 608.914 508.807 610.065 508.802 611.591C508.802 612.618 508.907 613.476 509.116 614.167C509.324 614.857 509.621 615.377 510.004 615.726C510.388 616.071 510.841 616.244 511.366 616.244ZM524.071 605.032V618.123H521.502V607.493H521.425L518.395 609.417V607.103L521.642 605.032H524.071ZM527.796 618.123L533.294 607.244V607.154H526.901V605.032H535.953V607.193L530.449 618.123H527.796Z" fill="#FC5252"/>
<path d="M555.112 618.123V616.27L559.714 611.885C560.132 611.476 560.479 611.109 560.756 610.785C561.038 610.457 561.249 610.14 561.389 609.833C561.534 609.526 561.607 609.196 561.607 608.842C561.607 608.441 561.515 608.098 561.332 607.813C561.153 607.523 560.906 607.301 560.59 607.148C560.275 606.99 559.917 606.912 559.516 606.912C559.099 606.912 558.734 606.997 558.423 607.167C558.112 607.333 557.871 607.574 557.701 607.89C557.535 608.201 557.452 608.574 557.452 609.008H555.01C555.01 608.164 555.202 607.431 555.585 606.809C555.969 606.187 556.501 605.706 557.183 605.365C557.869 605.024 558.656 604.853 559.542 604.853C560.45 604.853 561.242 605.017 561.92 605.346C562.602 605.674 563.132 606.127 563.511 606.707C563.891 607.282 564.08 607.943 564.08 608.689C564.08 609.179 563.984 609.662 563.793 610.14C563.601 610.617 563.264 611.147 562.783 611.731C562.301 612.311 561.624 613.01 560.75 613.828L558.66 615.912V616.001H564.266V618.123H555.112ZM571.366 618.392C570.287 618.387 569.363 618.119 568.591 617.586C567.82 617.049 567.228 616.274 566.814 615.26C566.405 614.241 566.201 613.018 566.201 611.591C566.205 610.163 566.412 608.949 566.821 607.947C567.234 606.941 567.827 606.174 568.598 605.646C569.369 605.118 570.292 604.853 571.366 604.853C572.435 604.853 573.356 605.118 574.127 605.646C574.898 606.174 575.491 606.941 575.904 607.947C576.322 608.953 576.528 610.167 576.524 611.591C576.524 613.022 576.317 614.248 575.904 615.266C575.491 616.28 574.898 617.056 574.127 617.593C573.36 618.125 572.439 618.392 571.366 618.392ZM571.366 616.244C572.15 616.244 572.772 615.854 573.232 615.074C573.692 614.294 573.922 613.133 573.922 611.591C573.922 610.572 573.816 609.722 573.603 609.04C573.394 608.354 573.098 607.838 572.714 607.493C572.335 607.148 571.885 606.976 571.366 606.976C570.586 606.976 569.964 607.363 569.499 608.139C569.039 608.914 568.807 610.065 568.802 611.591C568.802 612.618 568.907 613.476 569.116 614.167C569.324 614.857 569.621 615.377 570.004 615.726C570.388 616.071 570.841 616.244 571.366 616.244ZM584.071 605.032V618.123H581.502V607.493H581.425L578.395 609.417V607.103L581.642 605.032H584.071ZM592.207 618.302C591.555 618.298 590.924 618.187 590.315 617.97C589.705 617.752 589.158 617.397 588.672 616.902C588.186 616.408 587.801 615.754 587.515 614.94C587.234 614.122 587.093 613.112 587.093 611.91C587.097 610.802 587.221 609.811 587.464 608.938C587.707 608.064 588.056 607.325 588.512 606.72C588.972 606.115 589.522 605.652 590.161 605.333C590.805 605.013 591.525 604.853 592.322 604.853C593.17 604.853 593.92 605.02 594.572 605.352C595.224 605.68 595.75 606.13 596.151 606.701C596.551 607.272 596.796 607.913 596.886 608.625H594.355C594.244 608.143 594.009 607.762 593.651 607.48C593.298 607.199 592.855 607.059 592.322 607.059C591.44 607.059 590.767 607.442 590.302 608.209C589.838 608.976 589.603 610.022 589.599 611.348H589.688C589.889 610.964 590.155 610.638 590.487 610.37C590.824 610.097 591.203 609.888 591.625 609.743C592.051 609.594 592.499 609.52 592.968 609.52C593.739 609.52 594.429 609.703 595.039 610.069C595.648 610.436 596.129 610.939 596.483 611.578C596.837 612.213 597.014 612.941 597.014 613.764C597.014 614.637 596.811 615.417 596.406 616.103C596.006 616.789 595.443 617.328 594.719 617.721C593.999 618.113 593.161 618.306 592.207 618.302ZM592.194 616.257C592.637 616.257 593.036 616.15 593.389 615.937C593.743 615.72 594.02 615.428 594.22 615.061C594.425 614.695 594.525 614.284 594.521 613.828C594.525 613.376 594.427 612.969 594.227 612.607C594.031 612.245 593.758 611.957 593.409 611.744C593.059 611.531 592.663 611.424 592.22 611.424C591.887 611.424 591.578 611.488 591.293 611.616C591.007 611.74 590.758 611.912 590.545 612.134C590.336 612.355 590.17 612.613 590.046 612.907C589.927 613.197 589.865 613.508 589.861 613.841C589.865 614.279 589.968 614.682 590.168 615.049C590.372 615.415 590.649 615.709 590.999 615.931C591.348 616.148 591.747 616.257 592.194 616.257Z" fill="#FC5252"/>
<path d="M615.112 618.123V616.27L619.714 611.885C620.132 611.476 620.479 611.109 620.756 610.785C621.038 610.457 621.249 610.14 621.389 609.833C621.534 609.526 621.607 609.196 621.607 608.842C621.607 608.441 621.515 608.098 621.332 607.813C621.153 607.523 620.906 607.301 620.59 607.148C620.275 606.99 619.917 606.912 619.516 606.912C619.099 606.912 618.734 606.997 618.423 607.167C618.112 607.333 617.871 607.574 617.701 607.89C617.535 608.201 617.452 608.574 617.452 609.008H615.01C615.01 608.164 615.202 607.431 615.585 606.809C615.969 606.187 616.501 605.706 617.183 605.365C617.869 605.024 618.656 604.853 619.542 604.853C620.45 604.853 621.242 605.017 621.92 605.346C622.602 605.674 623.132 606.127 623.511 606.707C623.891 607.282 624.08 607.943 624.08 608.689C624.08 609.179 623.984 609.662 623.793 610.14C623.601 610.617 623.264 611.147 622.783 611.731C622.301 612.311 621.624 613.01 620.75 613.828L618.66 615.912V616.001H624.266V618.123H615.112ZM631.366 618.392C630.287 618.387 629.363 618.119 628.591 617.586C627.82 617.049 627.228 616.274 626.814 615.26C626.405 614.241 626.201 613.018 626.201 611.591C626.205 610.163 626.412 608.949 626.821 607.947C627.234 606.941 627.827 606.174 628.598 605.646C629.369 605.118 630.292 604.853 631.366 604.853C632.435 604.853 633.356 605.118 634.127 605.646C634.898 606.174 635.491 606.941 635.904 607.947C636.322 608.953 636.528 610.167 636.524 611.591C636.524 613.022 636.317 614.248 635.904 615.266C635.491 616.28 634.898 617.056 634.127 617.593C633.36 618.125 632.439 618.392 631.366 618.392ZM631.366 616.244C632.15 616.244 632.772 615.854 633.232 615.074C633.692 614.294 633.922 613.133 633.922 611.591C633.922 610.572 633.816 609.722 633.603 609.04C633.394 608.354 633.098 607.838 632.714 607.493C632.335 607.148 631.885 606.976 631.366 606.976C630.586 606.976 629.964 607.363 629.499 608.139C629.039 608.914 628.807 610.065 628.802 611.591C628.802 612.618 628.907 613.476 629.116 614.167C629.324 614.857 629.621 615.377 630.004 615.726C630.388 616.071 630.841 616.244 631.366 616.244ZM644.071 605.032V618.123H641.502V607.493H641.425L638.395 609.417V607.103L641.642 605.032H644.071ZM651.964 618.302C651.086 618.302 650.302 618.14 649.612 617.816C648.926 617.488 648.38 617.039 647.975 616.468C647.57 615.892 647.357 615.234 647.336 614.493H649.829C649.863 615.017 650.085 615.443 650.494 615.771C650.903 616.095 651.393 616.257 651.964 616.257C652.411 616.257 652.81 616.157 653.159 615.956C653.509 615.752 653.784 615.468 653.984 615.106C654.184 614.74 654.282 614.322 654.278 613.853C654.282 613.376 654.182 612.954 653.977 612.588C653.773 612.221 653.492 611.934 653.134 611.725C652.78 611.516 652.373 611.412 651.913 611.412C651.525 611.407 651.146 611.482 650.775 611.635C650.404 611.789 650.115 611.995 649.906 612.255L647.605 611.859L648.257 605.032H656.055V607.154H650.379L650.021 610.529H650.097C650.332 610.223 650.675 609.969 651.127 609.769C651.583 609.569 652.085 609.468 652.635 609.468C653.428 609.468 654.133 609.656 654.751 610.031C655.373 610.402 655.863 610.911 656.221 611.559C656.579 612.206 656.756 612.95 656.752 613.789C656.756 614.663 656.556 615.441 656.151 616.123C655.746 616.8 655.183 617.333 654.463 617.721C653.743 618.108 652.91 618.302 651.964 618.302Z" fill="#FC5252"/>
<line x1="663.52" y1="108.773" x2="666.509" y2="622.859" stroke="white" stroke-width="7" stroke-linecap="round"/>
<line x1="3.5" y1="-3.5" x2="528.501" y2="-3.5" transform="matrix(0.999998 0.00189822 -0.00186135 0.999998 182 593.054)" stroke="white" stroke-width="7" stroke-linecap="round"/>
<g filter="url(#filter1_d_77_2)">
<rect x="194" y="343.62" width="38" height="237.316" rx="10" fill="#FAB696"/>
</g>
<g filter="url(#filter2_d_77_2)">
<rect x="254" y="415.319" width="38" height="165.617" rx="10" fill="#FAB696"/>
</g>
<g filter="url(#filter3_d_77_2)">
<rect x="314" y="454.704" width="38" height="126.232" rx="10" fill="#FAB696"/>
</g>
<g filter="url(#filter4_d_77_2)">
<rect x="374" y="291.107" width="38" height="289.829" rx="10" fill="#FAB696"/>
</g>
<g filter="url(#filter5_d_77_2)">
<rect x="434" y="173.964" width="38" height="406.972" rx="10" fill="#FAB696"/>
</g>
<g filter="url(#filter6_d_77_2)">
<rect x="494" y="415.319" width="38" height="165.617" rx="10" fill="#FAB696"/>
</g>
<g filter="url(#filter7_d_77_2)">
<rect x="554" y="381.994" width="38" height="198.942" rx="10" fill="#FAB696"/>
</g>
<g filter="url(#filter8_d_77_2)">
<rect x="614" y="278.989" width="38" height="301.947" rx="10" fill="#FAB696"/>
</g>
<defs>
<filter id="filter0_d_77_2" x="0" y="0.435699" width="907" height="709.713" filterUnits="userSpaceOnUse" color-interpolation-filters="sRGB">
<feFlood flood-opacity="0" result="BackgroundImageFix"/>
<feColorMatrix in="SourceAlpha" type="matrix" values="0 0 0 0 0 0 0 0 0 0 0 0 0 0 0 0 0 0 127 0" result="hardAlpha"/>
<feOffset dx="11" dy="-6"/>
<feGaussianBlur stdDeviation="5.5"/>
<feComposite in2="hardAlpha" operator="out"/>
<feColorMatrix type="matrix" values="0 0 0 0 0 0 0 0 0 0 0 0 0 0 0 0 0 0 0.47 0"/>
<feBlend mode="normal" in2="BackgroundImageFix" result="effect1_dropShadow_77_2"/>
<feBlend mode="normal" in="SourceGraphic" in2="effect1_dropShadow_77_2" result="shape"/>
</filter>
<filter id="filter1_d_77_2" x="190" y="340.62" width="58" height="257.316" filterUnits="userSpaceOnUse" color-interpolation-filters="sRGB">
<feFlood flood-opacity="0" result="BackgroundImageFix"/>
<feColorMatrix in="SourceAlpha" type="matrix" values="0 0 0 0 0 0 0 0 0 0 0 0 0 0 0 0 0 0 127 0" result="hardAlpha"/>
<feMorphology radius="6" operator="dilate" in="SourceAlpha" result="effect1_dropShadow_77_2"/>
<feOffset dx="6" dy="7"/>
<feGaussianBlur stdDeviation="2"/>
<feComposite in2="hardAlpha" operator="out"/>
<feColorMatrix type="matrix" values="0 0 0 0 0 0 0 0 0 0 0 0 0 0 0 0 0 0 0.25 0"/>
<feBlend mode="normal" in2="BackgroundImageFix" result="effect1_dropShadow_77_2"/>
<feBlend mode="normal" in="SourceGraphic" in2="effect1_dropShadow_77_2" result="shape"/>
</filter>
<filter id="filter2_d_77_2" x="250" y="412.319" width="58" height="185.617" filterUnits="userSpaceOnUse" color-interpolation-filters="sRGB">
<feFlood flood-opacity="0" result="BackgroundImageFix"/>
<feColorMatrix in="SourceAlpha" type="matrix" values="0 0 0 0 0 0 0 0 0 0 0 0 0 0 0 0 0 0 127 0" result="hardAlpha"/>
<feMorphology radius="6" operator="dilate" in="SourceAlpha" result="effect1_dropShadow_77_2"/>
<feOffset dx="6" dy="7"/>
<feGaussianBlur stdDeviation="2"/>
<feComposite in2="hardAlpha" operator="out"/>
<feColorMatrix type="matrix" values="0 0 0 0 0 0 0 0 0 0 0 0 0 0 0 0 0 0 0.25 0"/>
<feBlend mode="normal" in2="BackgroundImageFix" result="effect1_dropShadow_77_2"/>
<feBlend mode="normal" in="SourceGraphic" in2="effect1_dropShadow_77_2" result="shape"/>
</filter>
<filter id="filter3_d_77_2" x="310" y="451.704" width="58" height="146.232" filterUnits="userSpaceOnUse" color-interpolation-filters="sRGB">
<feFlood flood-opacity="0" result="BackgroundImageFix"/>
<feColorMatrix in="SourceAlpha" type="matrix" values="0 0 0 0 0 0 0 0 0 0 0 0 0 0 0 0 0 0 127 0" result="hardAlpha"/>
<feMorphology radius="6" operator="dilate" in="SourceAlpha" result="effect1_dropShadow_77_2"/>
<feOffset dx="6" dy="7"/>
<feGaussianBlur stdDeviation="2"/>
<feComposite in2="hardAlpha" operator="out"/>
<feColorMatrix type="matrix" values="0 0 0 0 0 0 0 0 0 0 0 0 0 0 0 0 0 0 0.25 0"/>
<feBlend mode="normal" in2="BackgroundImageFix" result="effect1_dropShadow_77_2"/>
<feBlend mode="normal" in="SourceGraphic" in2="effect1_dropShadow_77_2" result="shape"/>
</filter>
<filter id="filter4_d_77_2" x="370" y="288.107" width="58" height="309.829" filterUnits="userSpaceOnUse" color-interpolation-filters="sRGB">
<feFlood flood-opacity="0" result="BackgroundImageFix"/>
<feColorMatrix in="SourceAlpha" type="matrix" values="0 0 0 0 0 0 0 0 0 0 0 0 0 0 0 0 0 0 127 0" result="hardAlpha"/>
<feMorphology radius="6" operator="dilate" in="SourceAlpha" result="effect1_dropShadow_77_2"/>
<feOffset dx="6" dy="7"/>
<feGaussianBlur stdDeviation="2"/>
<feComposite in2="hardAlpha" operator="out"/>
<feColorMatrix type="matrix" values="0 0 0 0 0 0 0 0 0 0 0 0 0 0 0 0 0 0 0.25 0"/>
<feBlend mode="normal" in2="BackgroundImageFix" result="effect1_dropShadow_77_2"/>
<feBlend mode="normal" in="SourceGraphic" in2="effect1_dropShadow_77_2" result="shape"/>
</filter>
<filter id="filter5_d_77_2" x="430" y="170.964" width="58" height="426.972" filterUnits="userSpaceOnUse" color-interpolation-filters="sRGB">
<feFlood flood-opacity="0" result="BackgroundImageFix"/>
<feColorMatrix in="SourceAlpha" type="matrix" values="0 0 0 0 0 0 0 0 0 0 0 0 0 0 0 0 0 0 127 0" result="hardAlpha"/>
<feMorphology radius="6" operator="dilate" in="SourceAlpha" result="effect1_dropShadow_77_2"/>
<feOffset dx="6" dy="7"/>
<feGaussianBlur stdDeviation="2"/>
<feComposite in2="hardAlpha" operator="out"/>
<feColorMatrix type="matrix" values="0 0 0 0 0 0 0 0 0 0 0 0 0 0 0 0 0 0 0.25 0"/>
<feBlend mode="normal" in2="BackgroundImageFix" result="effect1_dropShadow_77_2"/>
<feBlend mode="normal" in="SourceGraphic" in2="effect1_dropShadow_77_2" result="shape"/>
</filter>
<filter id="filter6_d_77_2" x="490" y="412.319" width="58" height="185.617" filterUnits="userSpaceOnUse" color-interpolation-filters="sRGB">
<feFlood flood-opacity="0" result="BackgroundImageFix"/>
<feColorMatrix in="SourceAlpha" type="matrix" values="0 0 0 0 0 0 0 0 0 0 0 0 0 0 0 0 0 0 127 0" result="hardAlpha"/>
<feMorphology radius="6" operator="dilate" in="SourceAlpha" result="effect1_dropShadow_77_2"/>
<feOffset dx="6" dy="7"/>
<feGaussianBlur stdDeviation="2"/>
<feComposite in2="hardAlpha" operator="out"/>
<feColorMatrix type="matrix" values="0 0 0 0 0 0 0 0 0 0 0 0 0 0 0 0 0 0 0.25 0"/>
<feBlend mode="normal" in2="BackgroundImageFix" result="effect1_dropShadow_77_2"/>
<feBlend mode="normal" in="SourceGraphic" in2="effect1_dropShadow_77_2" result="shape"/>
</filter>
<filter id="filter7_d_77_2" x="550" y="378.994" width="58" height="218.942" filterUnits="userSpaceOnUse" color-interpolation-filters="sRGB">
<feFlood flood-opacity="0" result="BackgroundImageFix"/>
<feColorMatrix in="SourceAlpha" type="matrix" values="0 0 0 0 0 0 0 0 0 0 0 0 0 0 0 0 0 0 127 0" result="hardAlpha"/>
<feMorphology radius="6" operator="dilate" in="SourceAlpha" result="effect1_dropShadow_77_2"/>
<feOffset dx="6" dy="7"/>
<feGaussianBlur stdDeviation="2"/>
<feComposite in2="hardAlpha" operator="out"/>
<feColorMatrix type="matrix" values="0 0 0 0 0 0 0 0 0 0 0 0 0 0 0 0 0 0 0.25 0"/>
<feBlend mode="normal" in2="BackgroundImageFix" result="effect1_dropShadow_77_2"/>
<feBlend mode="normal" in="SourceGraphic" in2="effect1_dropShadow_77_2" result="shape"/>
</filter>
<filter id="filter8_d_77_2" x="610" y="275.989" width="58" height="321.947" filterUnits="userSpaceOnUse" color-interpolation-filters="sRGB">
<feFlood flood-opacity="0" result="BackgroundImageFix"/>
<feColorMatrix in="SourceAlpha" type="matrix" values="0 0 0 0 0 0 0 0 0 0 0 0 0 0 0 0 0 0 127 0" result="hardAlpha"/>
<feMorphology radius="6" operator="dilate" in="SourceAlpha" result="effect1_dropShadow_77_2"/>
<feOffset dx="6" dy="7"/>
<feGaussianBlur stdDeviation="2"/>
<feComposite in2="hardAlpha" operator="out"/>
<feColorMatrix type="matrix" values="0 0 0 0 0 0 0 0 0 0 0 0 0 0 0 0 0 0 0.25 0"/>
<feBlend mode="normal" in2="BackgroundImageFix" result="effect1_dropShadow_77_2"/>
<feBlend mode="normal" in="SourceGraphic" in2="effect1_dropShadow_77_2" result="shape"/>
</filter>
</defs>
</svg>
