<svg width="25" height="28" viewBox="0 0 25 28" fill="none" xmlns="http://www.w3.org/2000/svg">
<g clip-path="url(#clip0_59_119)">
<path d="M7.54464 0.967969L7.14286 1.75H1.78571C0.797991 1.75 0 2.53203 0 3.5C0 4.46797 0.797991 5.25 1.78571 5.25H23.2143C24.202 5.25 25 4.46797 25 3.5C25 2.53203 24.202 1.75 23.2143 1.75H17.8571L17.4554 0.967969C17.154 0.371875 16.5346 0 15.8594 0H9.14062C8.4654 0 7.84598 0.371875 7.54464 0.967969ZM23.2143 7H1.78571L2.96875 25.5391C3.05804 26.9227 4.22991 28 5.64174 28H19.3583C20.7701 28 21.942 26.9227 22.0312 25.5391L23.2143 7Z" fill="black"/>
</g>
<defs>
<clipPath id="clip0_59_119">
<rect width="25" height="28" rx="10" fill="white"/>
</clipPath>
</defs>
</svg>
