<svg width="58" height="58" viewBox="0 0 58 58" fill="none" xmlns="http://www.w3.org/2000/svg">
<path d="M8.28571 0C3.71562 0 0 3.71562 0 8.28571V49.7143C0 54.2844 3.71562 58 8.28571 58H49.7143C54.2844 58 58 54.2844 58 49.7143V8.28571C58 3.71562 54.2844 0 49.7143 0H8.28571ZM18.5134 18.5134C19.7304 17.2964 21.6982 17.2964 22.9022 18.5134L28.9871 24.5982L35.0719 18.5134C36.2888 17.2964 38.2567 17.2964 39.4607 18.5134C40.6647 19.7304 40.6777 21.6982 39.4607 22.9022L33.3759 28.9871L39.4607 35.0719C40.6777 36.2888 40.6777 38.2567 39.4607 39.4607C38.2437 40.6647 36.2759 40.6777 35.0719 39.4607L28.9871 33.3759L22.9022 39.4607C21.6853 40.6777 19.7174 40.6777 18.5134 39.4607C17.3094 38.2437 17.2964 36.2759 18.5134 35.0719L24.5982 28.9871L18.5134 22.9022C17.2964 21.6853 17.2964 19.7174 18.5134 18.5134Z" fill="white"/>
</svg>
